<?xml version="1.0" encoding="UTF-8"?>
<svg id="Layer_1" data-name="Layer 1" xmlns="http://www.w3.org/2000/svg" viewBox="0 0 841.89 595.28">
  <defs>
    <style>
      .cls-1 {
        fill: #231f20;
        stroke-width: 0px;
      }
    </style>
  </defs>
  <g id="TEXT">
    <g>
      <path class="cls-1" d="m100.13,412.87h-28.13v-4.27h2.01c1.51,0,2.64-.38,3.39-1.13,1.26-1.13,1.88-3.52,1.88-7.16v-55.51c0-3.64-.63-6.03-1.88-7.28-.75-.75-1.76-1.13-3.14-1.13h-2.14v-4.27h35.79c10.3,0,18.33,2.64,23.23,7.53,3.64,3.64,5.53,8.41,5.53,14.07,0,7.03-3.01,12.81-8.67,16.83-5.53,3.89-13.56,5.9-23.23,5.9h-11.68v23.86c0,3.77.63,6.03,1.88,7.28.75.75,1.76,1.13,3.14,1.13h2.13l-.13,4.14Zm-7.03-41.57h11.68c5.27,0,9.54-1.51,12.43-4.4,3.01-3.01,4.65-7.54,4.65-13.06,0-10.67-4.9-16.33-14.06-16.33h-14.69v33.78Z"/>
      <path class="cls-1" d="m144.47,372.18c0-12.43,4.52-22.73,13.44-30.64,7.66-6.78,16.95-10.3,27.63-10.3s19.97,3.89,27.75,11.68c7.79,7.79,11.68,17.58,11.68,29.13s-4.02,21.98-11.8,29.89c-7.79,7.91-17.46,11.93-28.63,11.93s-20.85-3.89-28.51-11.55c-7.66-7.66-11.55-17.71-11.55-29.89v-.25Zm22.98-28.26c-5.27,6.28-7.91,15.7-7.91,27.88s2.76,22.35,8.29,29.01c4.14,5.02,9.8,7.54,16.7,7.54,7.28,0,13.44-2.76,18.21-8.29s7.16-14.44,7.16-26.5c0-13.06-2.76-22.98-8.16-29.51-4.14-5.02-10.05-7.54-17.46-7.54s-12.68,2.51-16.83,7.54v-.13Z"/>
      <path class="cls-1" d="m235.52,372.18c0-12.43,4.52-22.73,13.44-30.64,7.66-6.78,16.95-10.3,27.63-10.3s19.97,3.89,27.75,11.68c7.79,7.79,11.68,17.58,11.68,29.13s-4.02,21.98-11.8,29.89c-7.79,7.91-17.46,11.93-28.63,11.93s-20.85-3.89-28.51-11.55c-7.66-7.66-11.55-17.71-11.55-29.89v-.25Zm22.98-28.26c-5.27,6.28-7.91,15.7-7.91,27.88s2.76,22.35,8.29,29.01c4.14,5.02,9.8,7.54,16.7,7.54,7.28,0,13.44-2.76,18.21-8.29s7.16-14.44,7.16-26.5c0-13.06-2.76-22.98-8.16-29.51-4.14-5.02-10.05-7.54-17.46-7.54s-12.68,2.51-16.83,7.54v-.13Z"/>
      <path class="cls-1" d="m359.85,407.72c9.42,0,14.19-2.76,17.08-9.79l1-2.39h3.64v17.58h-58.14v-4.27h1.88c1.51,0,2.51-.38,3.27-1.13,1.26-1.13,1.88-3.52,1.88-7.16v-55.51c0-3.77-.63-6.03-1.88-7.28-.75-.75-1.76-1.13-3.14-1.13h-2.13v-4.27h28.13v4.27h-2.13c-1.26,0-2.26.38-3.01,1-1.26,1.26-1.88,3.64-1.88,7.28v62.79h15.45Z"/>
      <path class="cls-1" d="m447.25,376.32c3.89,3.77,6.03,8.54,6.03,13.81,0,2.89-.63,5.65-1.88,8.54-2.76,6.28-8.92,10.05-12.31,11.68-4.9,2.39-10.55,3.64-16.45,3.64-3.52,0-7.03-.5-10.42-1.38-6.53-1.76-12.18-4.27-12.56-4.4-1.38-.5-2.26.75-2.26.75h-3.64v-22.98h4.02l.38,1.26c3.01,10.17,7.66,16.45,14.06,19.34,2.26,1,4.77,1.63,7.16,1.88.88.12,1.76.12,2.64.12,6.03,0,13.56-2.13,16.83-8.04,3.77-6.78,0-13.44-5.4-16.95-3.01-2.01-6.53-3.26-9.54-4.27l-3.52-1.26c-8.29-2.89-17.58-6.15-22.98-13.06-5.15-6.66-4.65-17.2,1.13-24.11,1.88-2.13,4.27-4.14,6.78-5.53,4.52-2.64,10.05-4.02,16.45-4.02h.13c5.02,0,10.42.88,15.45,2.39,1,.38,3.64,1.26,3.64,1.26,1.38.5,2.26-.75,2.26-.75h3.64v21.1h-4.02l-.38-1.13c-1-3.01-4.27-9.42-7.03-12.56-2.01-2.26-5.15-3.89-8.92-4.52-1.76-.38-3.39-.5-4.9-.5-1.63,0-3.14.13-4.65.5-4.9,1.26-10.17,5.4-10.17,11.68,0,9.54,12.06,13.69,17.2,15.45l1.88.63c7.79,2.64,15.82,5.27,21.98,11.18l-.63.25Z"/>
      <path class="cls-1" d="m494.1,408.85c1.38,0,2.51-.38,3.26-1.13,1.26-1.26,1.88-3.52,1.88-7.16v-5.78h-35.54v-5.02l.25-.5,39.31-56.76h10.3v55.88h6.66v6.28h-6.66v7.03c0,2.89.63,4.77,1.76,5.9.88.75,2.13,1.13,3.77,1.13h2.26v4.27h-30.01v-4.27l2.76.12Zm5.15-20.47v-38.8l-27.12,38.8h27.12Z"/>
      <path class="cls-1" d="m537.68,342.79c-2.64-4.02-4.65-5.78-6.78-5.78h-1.76v-4.27h28v4.27h-2.13c-1.51,0-2.01.38-2.26.63-.5.75-.13,2.51,1.13,5.15l15.32,27.88,14.94-23.86c2.13-3.26,4.77-7.79,3.89-9.29-.38-.63-1.63-.75-2.64-.75h-2.39v-4.27h19.97v4.27h-1.88c-3.14,0-6.03,2.51-10.05,8.54l-18.71,30.14v25.12c.12,3.64.75,6.03,2.01,7.16.75.75,1.76,1.13,3.14,1.13h2.13v4.27h-27.88v-4.27h2.13c1.38,0,2.39-.38,3.14-1.13,1.26-1.26,1.88-3.52,1.88-7.16v-20.34l-19.34-34.79c-.63-1.13-1.26-2.14-1.88-3.01v.38Z"/>
      <path class="cls-1" d="m605.24,372.18c0-12.43,4.52-22.73,13.44-30.64,7.66-6.78,16.95-10.3,27.63-10.3s19.97,3.89,27.75,11.68c7.79,7.79,11.68,17.58,11.68,29.13s-4.02,21.98-11.8,29.89c-7.79,7.91-17.46,11.93-28.63,11.93s-20.85-3.89-28.51-11.55c-7.66-7.66-11.55-17.71-11.55-29.89v-.25Zm22.98-28.26c-5.27,6.28-7.91,15.7-7.91,27.88s2.76,22.35,8.29,29.01c4.14,5.02,9.79,7.54,16.7,7.54,7.28,0,13.44-2.76,18.21-8.29,4.77-5.53,7.16-14.44,7.16-26.5,0-13.06-2.76-22.98-8.16-29.51-4.14-5.02-10.05-7.54-17.46-7.54s-12.68,2.51-16.83,7.54v-.13Z"/>
      <path class="cls-1" d="m714.62,340.03c-.25.63-.38,1.38-.5,2.26-.13,1-.25,2.13-.25,3.26v34.41c0,3.52.12,6.53.5,9.42.5,4.4,1.51,7.91,2.89,10.3,1.38,2.39,3.39,4.4,6.03,6.03,2.51,1.51,5.65,2.26,9.42,2.26,4.02,0,9.54-.63,13.69-3.26,3.77-2.51,6.4-5.78,7.79-9.67,1.38-3.64,1.38-10.8,1.38-19.09v-29.64c0-4.14-.63-6.78-2.13-8.16-.88-.88-2.13-1.26-3.89-1.26h-2.39v-4.27h22.73v4.27h-3.01c-1.26.13-2.13.5-2.89,1.26-1.38,1.38-2.01,4.02-2.01,8.29v29.01c0,8.92-.12,15.7-1.63,20.6-1.51,4.9-4.52,9.17-8.92,12.68-4.27,3.39-11.18,5.4-19.09,5.4-3.64,0-7.66-.5-11.3-1.38-6.66-1.63-12.18-5.4-15.57-10.55-1.63-2.51-2.76-5.4-3.52-8.54-1.38-5.78-1.51-12.06-1.63-17.58v-.12c-.13-3.89-.13-12.81-.13-19.59v-11.3c0-6.53-1.76-8.04-4.4-8.29h-2.64v-4.27h28.13v4.27h-2.39c-.75,0-1.51.12-2.14.38-.38.13-.75.38-1,.75-.38.38-.63.88-.88,1.51l-.25.63Z"/>
    </g>
    <g>
      <path class="cls-1" d="m377.57,485.36c5.4,0,8.14-1.58,9.79-5.62l.58-1.37h2.09v10.08h-33.34v-2.45h1.08c.86,0,1.44-.22,1.87-.65.72-.65,1.08-2.02,1.08-4.1v-31.83c0-2.16-.36-3.46-1.08-4.18-.43-.43-1.01-.65-1.8-.65h-1.22v-2.45h16.13v2.45h-1.22c-.72,0-1.3.22-1.73.58-.72.72-1.08,2.09-1.08,4.18v36h8.86Z"/>
      <path class="cls-1" d="m397.29,452.45h-2.45v-10.3h43.56v10.37h-2.45l-.58-1.37c-1.73-4.25-4.54-5.98-9.79-5.98h-4.9v36c0,2.09.36,3.46,1.08,4.1.43.43,1.01.65,1.8.65h1.22v2.45h-16.13v-2.45h1.15c.86,0,1.44-.22,1.87-.65.72-.72,1.08-2.02,1.08-4.18v-36h-4.9c-5.18,0-8.14,1.8-9.87,5.98l-.72,1.37Z"/>
      <path class="cls-1" d="m459.79,442.22c3.89,0,7.42.5,10.51,1.51,3.1,1.01,5.76,2.52,7.92,4.46,2.16,2.02,3.82,4.46,4.9,7.34s1.66,6.19,1.66,9.79-.5,6.84-1.51,9.72c-1.01,2.88-2.52,5.33-4.46,7.34s-4.32,3.53-7.06,4.54c-2.81,1.01-5.98,1.51-9.5,1.51h-20.02v-2.45h1.22c.79,0,1.37-.22,1.8-.65.72-.72,1.08-2.09,1.08-4.18v-31.83c0-2.09-.36-3.46-1.08-4.1-.43-.43-1.01-.65-1.8-.65h-1.22v-2.45h17.57v.07Zm0,3.02h-5.47v40.25h7.99c4.54,0,8.06-1.73,10.51-5.18,2.52-3.46,3.82-8.64,3.82-14.98,0-12.75-6.12-20.09-16.85-20.09Z"/>
    </g>
    <g>
      <path class="cls-1" d="m114.54,556.18h0s.53-1.22.53-1.22h1.82v8.81h-15.77s-13.43,0-13.43,0v-2.13h.95c.77,0,1.3-.17,1.68-.52.61-.6.91-1.79.91-3.63v-27.89c0-1.87-.29-3.02-.92-3.64-.36-.35-.87-.52-1.55-.52h-1.07v-2.13h14.11v2.13h-1.1c-.64,0-1.17.18-1.52.53-.62.61-.92,1.79-.92,3.64v31.52h7.7c4.73,0,7.14-1.38,8.58-4.94Z"/>
      <path class="cls-1" d="m132.77,560.49c3.47,0,5.94-3.28,6.72-4.46v-13.22c0-.53-.04-1.03-.1-1.58-.05-.4-.19-1.17-.59-1.74-.41-.59-1.12-.58-1.5-.58h-1.06v-2.14l.75-.12,7.21-1.25h1.7v1.28c0,8.66,0,19,0,19.12-.02,2.67.58,5.83,2.19,5.83h1.08v2.13h-9.67v-3.47c-2.35,2.32-5.37,3.8-8.1,3.91-.13,0-.26,0-.39,0-2.27,0-4.29-.84-5.84-2.44-2.39-2.46-2.36-5.91-2.33-8.96,0-.39,0-.76,0-1.13l.03-8.88c-.02-1.75-.29-2.89-.84-3.47-.26-.28-.61-.34-1.02-.38-.09,0-.2-.02-.33-.02-.1,0-1.07,0-1.07,0v-2.14l7.98-1.38h1.69v.89s0,19.05,0,19.23c.05,3.28,1.22,4.94,3.49,4.94Z"/>
      <path class="cls-1" d="m178.05,561.64v2.13h-11.13v-2.13h.96c1.39,0,.36-1.33-.2-2.21-.25-.39-1.24-1.94-1.43-2.29l-2.74-4.35c-2.21,3.25-6.34,8.61-4.91,8.85h1.22v2.13h-8.69v-2.13h.99c1.12,0,2.39-.89,3.53-2.5l6.16-9.02c-6.04-9.54-6.95-10.92-7.06-11.08-.55-.76-1.03-1.2-1.52-1.4-.15-.06-.32-.07-.49-.07h-.89v-2.13h11.13v2.12h-.94c-.41,0-.48.31-.41.65.13.7.83,2,1.97,3.79l1.81,2.85,1.97-2.89.06-.08c.09-.13.19-.26.28-.4h0c.38-.56.96-1.38,1.39-2.17.66-1.21.81-1.74.27-1.74h-.94v-2.13h8.17v2.13h-.87s-1.26.03-2.13.97c-1.22,1.32-4.59,6.14-6.52,8.97l7.5,11.8c1.01,1.52,1.82,2.27,2.55,2.33h.91Z"/>
      <path class="cls-1" d="m193.1,560.49c3.47,0,5.94-3.28,6.72-4.46v-13.22c0-.53-.04-1.03-.1-1.58-.05-.4-.19-1.17-.59-1.74-.41-.59-1.12-.58-1.5-.58h-1.06v-2.14l.75-.12,7.21-1.25h1.7v1.28c0,8.66,0,19,0,19.12-.02,2.67.58,5.83,2.19,5.83h1.08v2.13h-9.67v-3.47c-2.35,2.32-5.37,3.8-8.1,3.91-.13,0-.26,0-.39,0-2.27,0-4.29-.84-5.84-2.44-2.39-2.46-2.36-5.91-2.33-8.96,0-.39,0-.76,0-1.13l.03-8.88c-.02-1.75-.29-2.89-.84-3.47-.26-.28-.61-.34-1.02-.38-.09,0-.2-.02-.33-.02-.1,0-1.07,0-1.07,0v-2.14l7.98-1.38h1.69v.89s0,19.05,0,19.23c.05,3.28,1.22,4.94,3.49,4.94Z"/>
      <path class="cls-1" d="m221.11,535.43v3.48c2.09-1.96,5.32-3.84,8.32-3.93h.03c.4,0,.81.02,1.22.14.7.19,1.43.58,1.89,1.04.48.46.77,1.12.81,1.86.05.81-.19,1.63-.66,2.26-.55.75-1.28,1.14-2.1,1.14-.08,0-.15,0-.23,0-.8-.08-1.51-.49-2.2-.88l-.04-.02c-.32-.19-.62-.36-.87-.46-.58-.23-1.16-.35-1.69-.35-.45,0-.84.09-1.18.27-.88.46-1.96,1.4-3.32,2.89,0,6.07,0,14.62,0,14.62,0,1.88.27,3.08.81,3.67.31.34.7.49,1.25.49h1.05v2.13h-12.64v-2.13h.89s.08,0,.11,0c.62,0,.97-.13,1.3-.47.52-.56.78-1.63.82-3.26,0-.31.02-14.75.02-14.89,0-1.85-.27-3.05-.84-3.67-.34-.38-.79-.43-1.43-.41h-.98v-2.14l7.88-1.36h1.77Z"/>
      <path class="cls-1" d="m236.42,537.57h-.89v-2.13h11.98v2.13h-.99c-.64,0-.84.2-.96.39-.28.48-.2,1.31.23,2.41l6.61,15.59c1.38-3.96,4.97-14.3,5.13-14.76.35-1.01.75-2.45.23-3.23-.11-.17-.34-.4-1.01-.4h-1.06v-2.13h9.02v2.14h-.69c-.07-.01-1.97.02-2.88,2.3l-8,23.03-2.99,8.19c-1.44,3.88-4.26,6.38-7.18,6.38-2.57,0-5.19-1.33-5.22-3.87,0-.78.25-1.51.73-2.06.52-.6,1.24-.93,2.05-.93,1.34,0,2.05.87,2.68,1.63.48.57.89,1.07,1.45,1.07.89,0,1.59-.96,2.01-1.77.08-.16.49-1.13,2.3-5.9l.39-1.05-10.53-24.56c-.9-2.04-1.59-2.45-2.42-2.46Z"/>
      <path class="cls-1" d="m285.36,525.44h-.96v-2.13h14.39v2.13h-1.1c-.64,0-1.11.21-1.4.61-.58.79-.58,2.28-.01,4.1.13.37,6.08,17.19,8.21,23.18l6-15.75-2.5-7.86c-1.07-3-2.17-4.28-3.68-4.28h-.96v-2.13h14.39v2.13h-.74c-1.52,0-1.93.86-2.01,1.08-.23.57-.24,1.2-.04,2.01l7.28,23.53c.38-1.26,1.02-3.34,1.75-5.75l.36-1.18c1.12-3.67,2.4-7.89,3.37-11.08.88-2.88,1.5-4.91,1.52-4.99.49-1.6.54-2.55.15-3.06-.3-.39-.95-.58-2.07-.58h-1.32v-2.13h11.08v2.13h-1.09c-1.68,0-2.81,1.01-3.67,3.27l-10.67,35.06h-2.78l-.2-.61-6.81-21.33-8.32,21.95h-2.65l-.21-.6-11.71-33.6c-1.07-2.9-2.15-4.13-3.61-4.13Z"/>
      <path class="cls-1" d="m351.68,544.83c0-.85,0-2.78-.02-3.08-.02-.42-.07-.74-.19-1.03-.35-.86-.95-1.56-1.84-2.13-.93-.59-1.98-.89-3.12-.89-.79,0-1.49.18-2.14.56-.89.51-1.51,1.28-1.85,2.29-.13.4-.23.91-.29,1.25v.08c-.18.84-.34,1.7-.88,2.35h0c-.57.67-1.38,1.07-2.16,1.07-1.12,0-1.98-.51-2.42-1.44-.7-1.45-.15-3.54.79-4.72.59-.76,1.35-1.45,2.19-1.99,2.16-1.41,4.91-2.19,7.75-2.19,1.08,0,2.14.11,3.15.34,2,.45,4.57,1.55,5.79,3.01.56.65,1.02,1.52,1.27,2.37.42,1.44.42,3,.42,4.14,0,.18,0,2.39-.02,7.21v.1c0,2.59-.01,5.54-.01,5.62,0,1.07.05,2.27.52,3.15.18.32.41.51.74.61.2.06.38.08.5.09.03,0,.07,0,.11,0,.07,0,.15,0,.18,0h.42v2.14h-5.02c-2.65-.14-3.53-1.4-3.78-2.46l-1.54.96c-2.27,1.28-4.86,1.98-7.3,1.98-.91,0-1.8-.11-2.64-.32-1.7-.43-3.29-1.59-4.26-3.1-.6-.92-.94-2.26-1.06-3.2-.04-.34-.07-.72-.07-1.12-.14-3.98,2.52-6.74,4.84-7.9,2.78-1.39,5.37-2,7.65-2.55l.07-.02c1.45-.34,2.93-.69,4.22-1.22Zm-.01,3c-.98.4-1.93.7-2.85.99-2.22.69-4.31,1.35-6.11,3.3-.91,1-1.38,2.25-1.33,3.61v.14c0,.65,0,2.37,2.18,3.55.41.22,1.32.48,2.57.48s2.58-.25,3.92-.74c.65-.24,1.28-.62,1.62-.84v-10.48Z"/>
      <path class="cls-1" d="m372.44,527.56v7.89h5.06v2.89h-4.96v19.04c0,.91,0,3.03.72,3.62.16.13.32.19.55.19.21,0,.46-.05.74-.15.16-.05.47-.18,1.05-.46l.93-.45.65,2.08-.65.36c-.42.22-.94.45-1.62.74-1.01.41-2.52.96-4.01.96-.94,0-1.78-.22-2.49-.65-2.08-1.27-2.26-4.03-2.26-6.51v-5.39c0-4.24.01-10.91.02-13.37h-3.96v-2.38l.7-.15c1.17-.27,5.14-1.62,6.8-7.59l.18-.65h2.55Z"/>
      <path class="cls-1" d="m385.95,547.91c-.08,1.96.12,3.89.57,5.6.54,2.01,1.44,3.68,2.61,4.83,1.32,1.3,3.23,2.08,5.12,2.08.65,0,1.28-.09,1.87-.27,2.28-.66,4.35-2.54,5.54-5.03l.39-.83,1.17.6c.07.04.11.06.15.09.02.01.03.02.04.03h.01s.06.04.09.06c.04.02.08.05.14.08l.68.36-.27.74c-1.31,3.48-4.1,6.32-7.28,7.41-1.14.4-2.37.6-3.64.6-1.42,0-2.87-.25-4.32-.73-2.76-.92-5.08-2.58-6.71-4.78-2.12-2.85-3.14-6.9-2.73-10.83.31-3,1.41-5.86,3.09-8.04,2.29-2.94,5.83-4.77,9.46-4.9.14,0,.27,0,.41,0,3.03,0,5.99,1.17,8.14,3.22,2.35,2.25,3.76,5.56,3.76,8.85v.9s-18.3,0-18.3,0Zm.23-2.73h12.04c-.03-1.97-.7-3.89-1.84-5.2-1.04-1.2-2.51-1.92-3.95-1.92-.31,0-.61.03-.91.1-1.29.29-2.52,1.17-3.45,2.48-1.01,1.41-1.66,2.97-1.9,4.54Z"/>
      <path class="cls-1" d="m417.43,535.43v3.48c2.09-1.96,5.32-3.84,8.32-3.93h.03c.4,0,.81.02,1.22.14.7.19,1.43.58,1.89,1.04.48.46.77,1.12.81,1.86.05.81-.19,1.63-.66,2.26-.55.75-1.28,1.14-2.1,1.14-.08,0-.15,0-.23,0-.8-.08-1.51-.49-2.2-.88l-.04-.02c-.32-.19-.62-.36-.87-.46-.58-.23-1.16-.35-1.69-.35-.45,0-.84.09-1.18.27-.88.46-1.96,1.4-3.33,2.89,0,6.07,0,14.62,0,14.62,0,1.88.27,3.08.81,3.67.31.34.7.49,1.25.49h1.05v2.13h-12.64v-2.13h.89s.08,0,.11,0c.62,0,.97-.13,1.3-.47.52-.56.78-1.63.82-3.26,0-.31.02-14.75.02-14.89,0-1.85-.27-3.05-.84-3.67-.34-.38-.79-.43-1.43-.41h-.98v-2.14l7.88-1.36h1.77Z"/>
      <path class="cls-1" d="m454.25,557.48v-27.88c0-1.86-.29-3.02-.92-3.63-.37-.35-.88-.53-1.55-.53h-1.08v-2.13h28.15v8.1h-2.13l-.23-.55c-1.41-3.45-4.06-4.92-8.86-4.92h-6.35v14.62h4.7c3.92,0,5.83-.78,6.79-2.78l.36-.77h2.13v10.2h-2.14l-.37-.83c-.98-2.33-2.82-3.19-6.78-3.19h-4.7v17.96h7.55c3.29,0,5.46-.68,6.96-2.28.31-.33.97-1.21,1.99-3.49l.18-.4h2.13v8.8h-29.39v-2.13h1.07c.68,0,1.2-.17,1.58-.53.62-.61.91-1.8.91-3.63Z"/>
      <path class="cls-1" d="m510.05,561.64v2.13h-11.13v-2.13h.96c1.39,0,.36-1.33-.2-2.21-.25-.39-1.24-1.94-1.43-2.29l-2.74-4.35c-2.21,3.25-6.34,8.61-4.91,8.85h1.22v2.13h-8.69v-2.13h1c1.12,0,2.39-.89,3.53-2.5l6.16-9.02c-6.04-9.54-6.95-10.92-7.06-11.08-.55-.76-1.03-1.2-1.52-1.4-.15-.06-.32-.07-.49-.07h-.89v-2.13h11.13v2.12h-.94c-.41,0-.48.31-.41.65.13.7.83,2,1.97,3.79l1.81,2.85,1.97-2.89.06-.08c.09-.13.19-.26.28-.4h0c.38-.56.96-1.38,1.39-2.17.66-1.21.81-1.74.27-1.74h-.94v-2.13h8.17v2.13h-.87s-1.26.03-2.13.97c-1.22,1.32-4.59,6.14-6.52,8.97l7.5,11.8c1.01,1.52,1.82,2.27,2.55,2.33h.91Z"/>
      <path class="cls-1" d="m514.8,571.2v-29.52c-.21-2.54-1.32-2.73-2.13-2.73h-1.07v-2.14l7.99-1.38h1.62v1.74c1.86-1.45,3.96-2.21,6.14-2.21,7.11,0,12.28,5.82,12.56,14.16,0,.41,0,.72,0,.99-.29,8.45-5.35,14.12-12.57,14.12-2.7,0-4.83-1.15-6.14-2.12v9.08c0,1.88.26,3.08.81,3.67.3.33.69.47,1.25.47h1.07v2.13h-12.65v-2.13h1.02c.59,0,.99-.15,1.3-.49.54-.61.81-1.81.81-3.67Zm6.41-12.64c.63.66,2.46,2.24,5.37,2.24,1.05,0,1.98-.19,2.77-.58.58-.28,1.11-.7,1.55-1.22.51-.6.94-1.35,1.31-2.28.34-.86.61-1.88.78-3.01.37-2.38.4-4.92.1-7.56-.14-1.17-.37-2.21-.71-3.17-.34-.96-.76-1.78-1.25-2.44-1.22-1.66-3.13-2-4.52-2-.86,0-1.75.13-2.57.39-.83.25-1.53.62-2.1,1.11-.36.3-.59.54-.73.69v17.84Z"/>
      <path class="cls-1" d="m550.36,547.91c-.08,1.96.12,3.89.57,5.6.54,2.01,1.44,3.68,2.61,4.83,1.32,1.3,3.23,2.08,5.12,2.08.65,0,1.28-.09,1.87-.27,2.28-.66,4.35-2.54,5.54-5.03l.39-.83,1.17.6c.07.04.11.06.15.09.02.01.03.02.04.03h.01s.06.04.09.06c.04.02.08.05.14.08l.68.36-.27.74c-1.31,3.48-4.1,6.32-7.28,7.41-1.14.4-2.37.6-3.64.6-1.42,0-2.87-.25-4.32-.73-2.76-.92-5.08-2.58-6.71-4.78-2.12-2.85-3.14-6.9-2.73-10.83.31-3,1.41-5.86,3.09-8.04,2.29-2.94,5.83-4.77,9.46-4.9.14,0,.27,0,.41,0,3.03,0,5.99,1.17,8.14,3.22,2.35,2.25,3.76,5.56,3.76,8.85v.9s-18.3,0-18.3,0Zm.23-2.73h12.04c-.03-1.97-.7-3.89-1.84-5.2-1.04-1.2-2.51-1.92-3.95-1.92-.31,0-.61.03-.91.1-1.29.29-2.52,1.17-3.45,2.48-1.01,1.41-1.66,2.97-1.9,4.54Z"/>
      <path class="cls-1" d="m581.85,535.43v3.48c2.09-1.96,5.32-3.84,8.32-3.93h.03c.4,0,.81.02,1.22.14.7.19,1.43.58,1.89,1.04.48.46.77,1.12.81,1.86.05.81-.19,1.63-.66,2.26-.55.75-1.28,1.14-2.1,1.14-.08,0-.15,0-.23,0-.8-.08-1.51-.49-2.2-.88l-.04-.02c-.32-.19-.62-.36-.87-.46-.58-.23-1.16-.35-1.69-.35-.45,0-.84.09-1.18.27-.88.46-1.96,1.4-3.33,2.89,0,6.07,0,14.62,0,14.62,0,1.88.27,3.08.81,3.67.31.34.7.49,1.25.49h1.05v2.13h-12.64v-2.13h.89s.08,0,.11,0c.62,0,.97-.13,1.3-.47.52-.56.78-1.63.82-3.26,0-.31.02-14.75.02-14.89,0-1.85-.27-3.05-.84-3.67-.34-.38-.79-.43-1.43-.41h-.98v-2.14l7.88-1.36h1.77Z"/>
      <path class="cls-1" d="m608.99,561.64v2.13h-12.64v-2.13h1.07c.54,0,.93-.16,1.24-.49.55-.6.81-1.8.81-3.66v-14.48c0-1.84-.28-3.03-.83-3.64-.32-.36-.72-.42-1.21-.42h-1.22v-2.14l.75-.12,7.26-1.25h1.67v22.05c0,1.87.27,3.07.82,3.68.29.33.68.48,1.23.48h1.06Zm-10.57-33.36c0-2.06,1.68-3.75,3.75-3.75s3.74,1.68,3.75,3.75c0,2.07-1.68,3.75-3.75,3.75s-3.75-1.68-3.75-3.75Z"/>
      <path class="cls-1" d="m618.2,547.91c-.08,1.96.12,3.89.57,5.6.54,2.01,1.44,3.68,2.61,4.83,1.32,1.3,3.23,2.08,5.12,2.08.65,0,1.28-.09,1.87-.27,2.28-.66,4.35-2.54,5.54-5.03l.39-.83,1.17.6c.07.04.11.06.15.09.02.01.03.02.04.03h.01s.06.04.09.06c.04.02.08.05.14.08l.68.36-.27.74c-1.31,3.48-4.1,6.32-7.28,7.41-1.14.4-2.37.6-3.64.6-1.42,0-2.87-.25-4.32-.73-2.76-.92-5.08-2.58-6.71-4.78-2.12-2.85-3.14-6.9-2.73-10.83.31-3,1.41-5.86,3.09-8.04,2.29-2.94,5.83-4.77,9.46-4.9.14,0,.27,0,.41,0,3.03,0,5.99,1.17,8.14,3.22,2.35,2.25,3.76,5.56,3.76,8.85v.9s-18.3,0-18.3,0Zm.23-2.73h12.04c-.03-1.97-.7-3.89-1.84-5.2-1.04-1.2-2.51-1.92-3.94-1.92-.31,0-.61.03-.91.1-1.29.29-2.52,1.17-3.45,2.48-1.01,1.41-1.66,2.97-1.9,4.54Z"/>
      <path class="cls-1" d="m649.7,535.43v3.24c2.26-2.18,5.28-3.56,8.11-3.68.13,0,.26,0,.38,0,2.26,0,4.28.84,5.83,2.44,1.37,1.41,2.19,3.59,2.32,6.14v5.13c.01,3.93,0,8.74,0,8.78,0,1.87.27,3.07.82,3.67.08.08.17.16.26.23.21.15.47.23.83.25.04,0,.26,0,.45,0,.04,0,.07,0,.09,0h.69v2.13h-12.65v-2.13h.68c.24,0,.47,0,.71-.02.34-.03.67-.19.92-.47.55-.6.82-1.8.82-3.67v-.47c-.02-8.39-.03-13.01-.03-13.36-.05-3.27-1.22-4.93-3.49-4.93-3.67,0-6.11,3.29-6.72,4.2v14.56c-.01,1.87.25,3.07.8,3.67.3.33.71.49,1.25.49h1.04v2.13h-12.64v-2.13h1.07c.55,0,.93-.15,1.23-.48.55-.61.82-1.81.82-3.67v-13.88c.06-2.18-.2-3.57-.8-4.25-.34-.38-.75-.44-1.38-.44h-.1s-.97,0-.97,0v-2.14l7.99-1.34h1.68Z"/>
      <path class="cls-1" d="m679.19,549.69c.14,3.25,1,8.95,5.22,10.62.8.31,1.6.47,2.38.47h.22c3.2-.06,5.86-2.16,7.49-5.9l.39-.91,2.27,1.28-.27.72c-1.39,3.7-3.91,6.43-6.92,7.51-1.4.5-2.89.76-4.42.76-.51,0-1.03-.03-1.55-.09-4.54-.51-8.55-3.49-10.47-7.79-1.21-2.71-1.58-6.01-1.03-9.32,1.08-6.49,5.96-11.56,11.62-12.05.36-.04.73-.05,1.16-.05,2.45,0,4.88.64,7.03,1.86,1.21.7,3.61,2.6,4.02,4.81.17.88-.02,1.72-.58,2.48-.54.72-1.36,1.14-2.26,1.14-.55,0-1.09-.16-1.55-.47-1.06-.71-1.3-1.88-1.5-2.92v-.03c-.04-.25-.11-.51-.17-.77-.53-2.11-2.28-3.42-4.57-3.42-.12,0-.25,0-.4.01h-.02c-5.74.47-6.28,7.75-6.09,12.04Z"/>
      <path class="cls-1" d="m707.97,547.91c-.08,1.96.12,3.89.57,5.6.54,2.01,1.44,3.68,2.61,4.83,1.32,1.3,3.23,2.08,5.12,2.08.65,0,1.28-.09,1.87-.27,2.28-.66,4.35-2.54,5.54-5.03l.39-.83,1.17.6c.07.04.11.06.15.09.02.01.03.02.04.03h.01s.06.04.09.06c.04.02.08.05.14.08l.68.36-.27.74c-1.31,3.48-4.1,6.32-7.28,7.41-1.14.4-2.37.6-3.64.6-1.42,0-2.87-.25-4.32-.73-2.76-.92-5.08-2.58-6.71-4.78-2.12-2.85-3.14-6.9-2.73-10.83.31-3,1.41-5.86,3.09-8.04,2.29-2.94,5.83-4.77,9.46-4.9.14,0,.27,0,.41,0,3.03,0,5.99,1.17,8.14,3.22,2.35,2.25,3.76,5.56,3.76,8.85v.9s-18.3,0-18.3,0Zm.23-2.73h12.04c-.03-1.97-.7-3.89-1.84-5.2-1.04-1.2-2.51-1.92-3.94-1.92-.31,0-.61.03-.91.1-1.29.29-2.52,1.17-3.45,2.48-1.01,1.41-1.66,2.97-1.9,4.54Z"/>
      <path class="cls-1" d="m753.73,556.68c-.31,2.09-1.52,4-3.33,5.24-2.2,1.53-4.69,2.3-7.41,2.3-1.25,0-2.67-.13-4.21-.4-1.35-.23-5.02-1.21-5.05-1.22-.42-.11-.57.17-.57.17h-2.03v-9.12h2.13l.17.45c.5,1.35,1.16,2.63,1.94,3.82.34.5.72,1.03,1.18,1.46h0c.46.45,1.08.86,1.84,1.24,1.43.71,3.05,1.08,4.67,1.08,1.48,0,2.7-.37,3.63-1.11.83-.66,1.29-1.58,1.29-2.58.01-1.13-.53-2.23-1.48-3.02-1.33-1.11-3.63-2.05-5.65-2.87-4.61-1.9-9.83-4.05-9.75-8.88.03-1.77.71-3.46,1.92-4.76.75-.8,1.73-1.52,2.75-2.05,1.53-.81,3.4-1.29,5.55-1.42.37-.02.74-.03,1.1-.03,2.08,0,4.07.31,6.21.99.15.05.4.14.51.17.17.04.26.03.3.01.17-.05.23-.17.23-.17h1.98v2.4s0,5.48,0,5.48h-2.14l-.17-.42c-.44-1.07-1.67-3.2-2.73-4.25-.28-.28-.59-.52-.96-.76-1.12-.68-2.17-.97-3.48-.97-2.15,0-4.72,1.07-4.72,3.48,0,2.8,4.05,4.4,7.62,5.8,2.67,1.05,5.22,2.18,7.05,4.42,1.32,1.54,1.89,3.5,1.62,5.53Z"/>
    </g>
  </g>
  <g id="LOGO">
    <path class="cls-1" d="m328.21,244.54s-6.56-4.63-7.69-32.69,15.33-52.38,28.5-67c20.88-23.19,30.82-33.23,47-53.69,13.25-16.75,17.74-22.13,23.34-38.33,4.04-11.68,4.41-19.93,5.1-28.68,0,0,19,29.38,18.38,58.94-.63,29.56-9.88,46.38-27.5,63.88-17.63,17.5-37.57,31.69-52.57,48.69-6.23,7.06-17.13,22.44-15.94,43,1.19,20.56,4.88,39.5,34.31,62.38,0,0-24.5-11.19-36.25-33.56-11.75-22.38-10-43.07-7-51.57,3-8.5,7.19-25.19,25.13-43.19,17.94-18,43.19-38.88,50.32-47.5,7.13-8.63,13.23-22.77,14.63-34,1.25-10.06.13-23.06-.5-25.63,0,0-6.32,19.52-22.25,39.5-30.5,38.25-34.75,38.44-51.5,55.13-15.91,15.85-26.85,40.21-27.81,56.57-.58,9.76-.63,19.06,2.31,27.75Z"/>
    <path class="cls-1" d="m445.47,148.1c8.63-11.16,13.83-27.68,11.58-49.81,0,0-2.54,25.09-18.05,42.21-23.44,25.88-39.66,31.16-55.66,46.91s-40.5,43.5-19.88,84.69,74.19,39.94,106.13,26,51.19-42.88,51.82-72.38-18.38-45.19-43.69-45.5c-25.31-.31-30.94,20.47-30.94,20.47,17.06-8.34,30.06-1.28,35.31,3.34,5.25,4.63,12.31,12.88,12.06,29.69-.22,14.84-3.94,34.13-27.44,49-23.5,14.88-50.63,9.88-50.63,9.88,3.25-1.19,23.06-.31,38.63-15.19,15.56-14.88,16.81-37.13,16.81-37.13-4.17,11.2-7.28,18.13-19.31,27.13-16.59,12.41-43.82,9.31-55.07,0-11.25-9.31-16.8-24.87-14.75-38.32,2.38-15.56,8.95-25.03,22.94-40.5,4.41-4.88,23.25-18.66,40.13-40.5Z"/>
  </g>
  <rect id="DASH" class="cls-1" x="209.91" y="467.03" width="124.71" height="4.27" rx="1.66" ry="1.66"/>
  <rect id="DASH-2" data-name="DASH" class="cls-1" x="503.21" y="467.03" width="124.71" height="4.27" rx="1.66" ry="1.66"/>
</svg>