<?xml version="1.0" encoding="UTF-8"?>
<svg id="Layer_1" data-name="Layer 1" xmlns="http://www.w3.org/2000/svg" viewBox="0 0 841.89 595.28">
  <defs>
    <style>
      .cls-1, .cls-2 {
        fill: #231f20;
        stroke-width: 0px;
      }

      .cls-1, .cls-3 {
        opacity: .95;
      }
    </style>
  </defs>
  <g id="group_2" data-name="group 2">
    <g id="pools" class="cls-3">
      <path class="cls-2" d="m221.19,319.61h-25.08v-3.81h1.79c1.34,0,2.35-.34,3.02-1.01,1.12-1.01,1.68-3.14,1.68-6.38v-49.49c0-3.25-.56-5.38-1.68-6.5-.67-.67-1.57-1.01-2.8-1.01h-1.9v-3.81h31.91c9.18,0,16.35,2.35,20.72,6.72,3.25,3.25,4.93,7.5,4.93,12.54,0,6.27-2.69,11.42-7.73,15-4.93,3.47-12.09,5.26-20.72,5.26h-10.41v21.28c0,3.36.56,5.38,1.68,6.49.67.67,1.57,1.01,2.8,1.01h1.9l-.11,3.69Zm-6.27-37.06h10.41c4.7,0,8.51-1.34,11.09-3.92,2.69-2.69,4.14-6.72,4.14-11.65,0-9.52-4.37-14.56-12.54-14.56h-13.1v30.12Z"/>
      <path class="cls-2" d="m260.72,283.33c0-11.09,4.03-20.27,11.98-27.32,6.83-6.05,15.12-9.18,24.64-9.18s17.8,3.47,24.75,10.41c6.94,6.94,10.41,15.68,10.41,25.98s-3.58,19.6-10.53,26.65c-6.94,7.05-15.57,10.64-25.53,10.64s-18.59-3.47-25.42-10.3c-6.83-6.83-10.3-15.79-10.3-26.65v-.22Zm20.49-25.2c-4.7,5.6-7.05,14-7.05,24.86s2.46,19.93,7.39,25.87c3.7,4.48,8.73,6.72,14.89,6.72,6.49,0,11.98-2.46,16.24-7.39s6.38-12.88,6.38-23.63c0-11.65-2.46-20.49-7.28-26.32-3.7-4.48-8.96-6.72-15.57-6.72s-11.31,2.24-15.01,6.72v-.11Z"/>
      <path class="cls-2" d="m341.91,283.33c0-11.09,4.03-20.27,11.98-27.32,6.83-6.05,15.12-9.18,24.64-9.18s17.8,3.47,24.75,10.41c6.94,6.94,10.41,15.68,10.41,25.98s-3.58,19.6-10.53,26.65c-6.94,7.05-15.57,10.64-25.53,10.64s-18.59-3.47-25.42-10.3c-6.83-6.83-10.3-15.79-10.3-26.65v-.22Zm20.49-25.2c-4.7,5.6-7.05,14-7.05,24.86s2.46,19.93,7.39,25.87c3.7,4.48,8.73,6.72,14.89,6.72,6.49,0,11.98-2.46,16.24-7.39s6.38-12.88,6.38-23.63c0-11.65-2.46-20.49-7.28-26.32-3.7-4.48-8.96-6.72-15.57-6.72s-11.31,2.24-15.01,6.72v-.11Z"/>
      <path class="cls-2" d="m452.77,315.02c8.4,0,12.65-2.46,15.23-8.73l.9-2.13h3.25v15.68h-51.85v-3.81h1.68c1.34,0,2.24-.34,2.91-1.01,1.12-1.01,1.68-3.14,1.68-6.38v-49.49c0-3.36-.56-5.38-1.68-6.5-.67-.67-1.57-1.01-2.8-1.01h-1.9v-3.81h25.08v3.81h-1.9c-1.12,0-2.02.34-2.69.9-1.12,1.12-1.68,3.25-1.68,6.49v55.99h13.77Z"/>
      <path class="cls-2" d="m530.71,287.03c3.47,3.36,5.37,7.61,5.37,12.32,0,2.58-.56,5.04-1.68,7.61-2.46,5.6-7.95,8.96-10.97,10.41-4.37,2.13-9.41,3.25-14.67,3.25-3.13,0-6.27-.45-9.29-1.23-5.82-1.57-10.86-3.81-11.2-3.92-1.23-.45-2.02.67-2.02.67h-3.25v-20.49h3.58l.34,1.12c2.69,9.07,6.83,14.67,12.54,17.25,2.02.9,4.26,1.46,6.38,1.68.78.11,1.57.11,2.35.11,5.38,0,12.09-1.9,15.01-7.17,3.36-6.05,0-11.98-4.81-15.12-2.69-1.79-5.82-2.91-8.51-3.81l-3.13-1.12c-7.39-2.58-15.68-5.49-20.49-11.65-4.59-5.93-4.14-15.34,1.01-21.5,1.68-1.9,3.81-3.69,6.05-4.93,4.03-2.35,8.96-3.58,14.67-3.58h.11c4.48,0,9.29.78,13.77,2.13.9.34,3.25,1.12,3.25,1.12,1.23.45,2.02-.67,2.02-.67h3.25v18.81h-3.58l-.34-1.01c-.9-2.69-3.81-8.4-6.27-11.2-1.79-2.02-4.59-3.47-7.95-4.03-1.57-.34-3.02-.45-4.37-.45-1.46,0-2.8.11-4.14.45-4.37,1.12-9.07,4.82-9.07,10.41,0,8.51,10.75,12.21,15.34,13.77l1.68.56c6.94,2.35,14.11,4.7,19.6,9.97l-.56.22Z"/>
      <path class="cls-2" d="m572.49,316.03c1.23,0,2.24-.34,2.91-1.01,1.12-1.12,1.68-3.14,1.68-6.38v-5.15h-31.69v-4.48l.22-.45,35.05-50.62h9.18v49.83h5.93v5.6h-5.93v6.27c0,2.57.56,4.25,1.57,5.26.78.67,1.9,1.01,3.36,1.01h2.02v3.81h-26.76v-3.81l2.46.11Zm4.59-18.25v-34.6l-24.19,34.6h24.19Z"/>
      <path class="cls-2" d="m611.35,257.13c-2.35-3.58-4.14-5.15-6.05-5.15h-1.57v-3.81h24.97v3.81h-1.9c-1.34,0-1.79.34-2.02.56-.45.67-.11,2.24,1.01,4.59l13.66,24.86,13.33-21.28c1.9-2.91,4.26-6.94,3.47-8.29-.34-.56-1.46-.67-2.35-.67h-2.13v-3.81h17.8v3.81h-1.68c-2.8,0-5.37,2.24-8.96,7.61l-16.68,26.87v22.4c.11,3.25.67,5.38,1.79,6.38.67.67,1.57,1.01,2.8,1.01h1.9v3.81h-24.86v-3.81h1.9c1.23,0,2.13-.34,2.8-1.01,1.12-1.12,1.68-3.14,1.68-6.38v-18.14l-17.24-31.02c-.56-1.01-1.12-1.9-1.68-2.69v.34Z"/>
      <path class="cls-2" d="m671.6,283.33c0-11.09,4.03-20.27,11.98-27.32,6.83-6.05,15.12-9.18,24.64-9.18s17.8,3.47,24.75,10.41c6.94,6.94,10.41,15.68,10.41,25.98s-3.58,19.6-10.53,26.65c-6.94,7.05-15.56,10.64-25.53,10.64s-18.59-3.47-25.42-10.3c-6.83-6.83-10.3-15.79-10.3-26.65v-.22Zm20.49-25.2c-4.7,5.6-7.05,14-7.05,24.86s2.46,19.93,7.39,25.87c3.7,4.48,8.73,6.72,14.89,6.72,6.49,0,11.98-2.46,16.24-7.39,4.26-4.93,6.38-12.88,6.38-23.63,0-11.65-2.46-20.49-7.28-26.32-3.69-4.48-8.96-6.72-15.56-6.72s-11.31,2.24-15.01,6.72v-.11Z"/>
      <path class="cls-2" d="m769.13,254.67c-.22.56-.34,1.23-.45,2.02-.11.9-.22,1.9-.22,2.91v30.68c0,3.13.11,5.82.45,8.4.45,3.92,1.34,7.06,2.58,9.18,1.23,2.13,3.02,3.92,5.37,5.38,2.24,1.34,5.04,2.02,8.4,2.02,3.58,0,8.51-.56,12.21-2.91,3.36-2.24,5.71-5.15,6.94-8.62,1.23-3.25,1.23-9.63,1.23-17.02v-26.43c0-3.7-.56-6.05-1.9-7.28-.78-.78-1.9-1.12-3.47-1.12h-2.13v-3.81h20.27v3.81h-2.69c-1.12.11-1.9.45-2.57,1.12-1.23,1.23-1.79,3.58-1.79,7.39v25.87c0,7.95-.11,14-1.46,18.37-1.34,4.37-4.03,8.17-7.95,11.31-3.81,3.02-9.97,4.81-17.02,4.81-3.25,0-6.83-.45-10.08-1.23-5.94-1.46-10.86-4.82-13.89-9.41-1.46-2.24-2.46-4.82-3.14-7.61-1.23-5.15-1.34-10.75-1.46-15.68v-.11c-.11-3.47-.11-11.42-.11-17.47v-10.08c0-5.82-1.57-7.17-3.92-7.39h-2.35v-3.81h25.08v3.81h-2.13c-.67,0-1.34.11-1.9.34-.34.11-.67.34-.9.67-.34.34-.56.78-.78,1.34l-.22.56Z"/>
    </g>
    <g id="ltd" class="cls-3">
      <path class="cls-2" d="m468.58,384.25c4.82,0,7.26-1.41,8.73-5.01l.51-1.22h1.86v8.99h-29.73v-2.18h.96c.77,0,1.28-.19,1.67-.58.64-.58.96-1.8.96-3.66v-28.38c0-1.93-.32-3.08-.96-3.72-.38-.38-.9-.58-1.6-.58h-1.09v-2.18h14.38v2.18h-1.09c-.64,0-1.16.19-1.54.51-.64.64-.96,1.86-.96,3.72v32.1h7.9Z"/>
      <path class="cls-2" d="m486.17,354.91h-2.18v-9.18h38.85v9.25h-2.18l-.51-1.22c-1.54-3.79-4.05-5.33-8.73-5.33h-4.37v32.1c0,1.86.32,3.08.96,3.66.38.39.9.58,1.6.58h1.09v2.18h-14.38v-2.18h1.03c.77,0,1.28-.19,1.67-.58.64-.64.96-1.8.96-3.72v-32.1h-4.37c-4.62,0-7.26,1.6-8.8,5.33l-.64,1.22Z"/>
      <path class="cls-2" d="m541.9,345.79c3.47,0,6.61.45,9.37,1.35,2.76.9,5.14,2.25,7.06,3.98,1.93,1.8,3.4,3.98,4.37,6.55s1.48,5.52,1.48,8.73-.45,6.1-1.35,8.67c-.9,2.57-2.25,4.75-3.98,6.55-1.73,1.8-3.85,3.15-6.29,4.04-2.5.9-5.33,1.35-8.48,1.35h-17.85v-2.18h1.09c.71,0,1.22-.19,1.6-.58.64-.64.96-1.86.96-3.72v-28.38c0-1.86-.32-3.08-.96-3.66-.38-.38-.9-.58-1.6-.58h-1.09v-2.18h15.67v.06Zm0,2.7h-4.88v35.89h7.13c4.04,0,7.19-1.54,9.37-4.62,2.25-3.08,3.4-7.7,3.4-13.36,0-11.36-5.46-17.91-15.02-17.91Z"/>
    </g>
    <rect id="DASH" class="cls-1" x="580.62" y="367.91" width="111.21" height="3.81" rx="1.64" ry="1.64"/>
    <rect id="DASH-2" data-name="DASH" class="cls-1" x="319.08" y="367.91" width="111.21" height="3.81" rx="1.64" ry="1.64"/>
  </g>
  <g id="LOGO">
    <path class="cls-2" d="m28.61,349.94s-4.34-3.06-5.09-21.64,10.15-34.67,18.86-44.35c13.82-15.35,20.4-21.99,31.11-35.53,8.77-11.09,11.74-14.65,15.45-25.37,2.67-7.73,2.92-13.19,3.37-18.98,0,0,12.58,19.44,12.16,39.01-.41,19.57-6.54,30.69-18.2,42.28-11.67,11.58-24.86,20.97-34.79,32.23-4.12,4.67-11.33,14.85-10.55,28.46.79,13.61,3.23,26.14,22.71,41.28,0,0-16.22-7.4-23.99-22.21-7.78-14.81-6.62-28.5-4.63-34.13,1.99-5.63,4.76-16.67,16.63-28.59,11.87-11.91,28.59-25.73,33.3-31.44,4.72-5.71,8.76-15.07,9.68-22.5.83-6.66.08-15.26-.33-16.96,0,0-4.18,12.92-14.73,26.14-20.19,25.32-23,25.44-34.09,36.49-10.53,10.49-17.77,26.62-18.41,37.44-.38,6.46-.41,12.62,1.53,18.37Z"/>
    <path class="cls-2" d="m106.21,286.11c5.71-7.39,9.15-18.32,7.66-32.96,0,0-1.68,16.61-11.94,27.94-15.51,17.13-26.25,20.62-36.84,31.05-10.59,10.42-26.81,28.79-13.15,56.05,13.65,27.26,49.1,26.43,70.24,17.21,21.14-9.23,33.88-28.38,34.29-47.9.41-19.53-12.16-29.91-28.92-30.12-16.75-.21-20.48,13.55-20.48,13.55,11.29-5.52,19.9-.85,23.37,2.21,3.47,3.06,8.15,8.52,7.98,19.65-.15,9.82-2.61,22.59-18.16,32.43-15.55,9.85-33.51,6.54-33.51,6.54,2.15-.79,15.26-.21,25.57-10.05s11.13-24.57,11.13-24.57c-2.76,7.41-4.82,12-12.78,17.95-10.98,8.21-29,6.16-36.44,0-7.45-6.16-11.12-16.46-9.76-25.36,1.57-10.3,5.92-16.56,15.18-26.81,2.92-3.23,15.39-12.35,26.56-26.81Z"/>
  </g>
</svg>