<?xml version="1.0" encoding="UTF-8"?>
<svg id="Layer_2" data-name="Layer 2" xmlns="http://www.w3.org/2000/svg" viewBox="0 0 775.23 252.23">
  <defs>
    <style>
      .cls-1 {
        fill: #0f1012;
      }
    </style>
  </defs>
  <g id="Layer_1-2" data-name="Layer 1">
    <g id="Full_Logo_Black">
      <g id="Text">
        <g id="pools">
          <path class="cls-1" d="M205.78,112.26h-23.92v-3.63h1.71c1.28,0,2.24-.32,2.88-.96,1.07-.96,1.6-2.99,1.6-6.09v-47.19c0-3.1-.53-5.13-1.6-6.19-.64-.64-1.49-.96-2.67-.96h-1.82v-3.63h30.43c8.76,0,15.59,2.24,19.75,6.41,3.1,3.1,4.7,7.15,4.7,11.96,0,5.98-2.56,10.89-7.37,14.31-4.7,3.31-11.53,5.02-19.75,5.02h-9.93v20.29c0,3.2.53,5.13,1.6,6.19.64.64,1.49.96,2.67.96h1.82l-.11,3.52ZM199.8,76.92h9.93c4.48,0,8.12-1.28,10.57-3.74,2.56-2.56,3.95-6.41,3.95-11.1,0-9.08-4.16-13.88-11.96-13.88h-12.49v28.72Z"/>
          <path class="cls-1" d="M243.47,77.67c0-10.57,3.84-19.33,11.42-26.05,6.51-5.77,14.41-8.76,23.49-8.76s16.98,3.31,23.6,9.93c6.62,6.62,9.93,14.95,9.93,24.77s-3.42,18.69-10.04,25.41c-6.62,6.73-14.84,10.14-24.34,10.14s-17.72-3.31-24.24-9.82c-6.51-6.51-9.82-15.06-9.82-25.41v-.21ZM263.01,53.64c-4.48,5.34-6.73,13.35-6.73,23.7s2.35,19.01,7.05,24.66c3.52,4.27,8.33,6.41,14.2,6.41,6.19,0,11.42-2.35,15.48-7.05,4.06-4.7,6.09-12.28,6.09-22.53,0-11.1-2.35-19.54-6.94-25.09-3.52-4.27-8.54-6.41-14.84-6.41s-10.78,2.14-14.31,6.41v-.11Z"/>
          <path class="cls-1" d="M320.89,77.67c0-10.57,3.84-19.33,11.42-26.05,6.51-5.77,14.41-8.76,23.49-8.76s16.98,3.31,23.6,9.93c6.62,6.62,9.93,14.95,9.93,24.77s-3.42,18.69-10.04,25.41c-6.62,6.73-14.84,10.14-24.34,10.14s-17.72-3.31-24.24-9.82c-6.51-6.51-9.82-15.06-9.82-25.41v-.21ZM340.43,53.64c-4.48,5.34-6.73,13.35-6.73,23.7s2.35,19.01,7.05,24.66c3.52,4.27,8.33,6.41,14.2,6.41,6.19,0,11.42-2.35,15.48-7.05,4.06-4.7,6.09-12.28,6.09-22.53,0-11.1-2.35-19.54-6.94-25.09-3.52-4.27-8.54-6.41-14.84-6.41s-10.78,2.14-14.31,6.41v-.11Z"/>
          <path class="cls-1" d="M426.6,107.88c8.01,0,12.07-2.35,14.52-8.33l.85-2.03h3.1v14.95h-49.44v-3.63h1.6c1.28,0,2.14-.32,2.78-.96,1.07-.96,1.6-2.99,1.6-6.09v-47.19c0-3.2-.53-5.13-1.6-6.19-.64-.64-1.49-.96-2.67-.96h-1.82v-3.63h23.92v3.63h-1.82c-1.07,0-1.92.32-2.56.85-1.07,1.07-1.6,3.1-1.6,6.19v53.39h13.13Z"/>
          <path class="cls-1" d="M500.91,81.19c3.31,3.2,5.12,7.26,5.12,11.74,0,2.46-.53,4.81-1.6,7.26-2.35,5.34-7.58,8.54-10.46,9.93-4.16,2.03-8.97,3.1-13.99,3.1-2.99,0-5.98-.43-8.86-1.17-5.55-1.49-10.36-3.63-10.68-3.74-1.17-.43-1.92.64-1.92.64h-3.1v-19.54h3.42l.32,1.07c2.56,8.65,6.51,13.99,11.96,16.44,1.92.85,4.06,1.39,6.09,1.6.75.11,1.49.11,2.24.11,5.13,0,11.53-1.82,14.31-6.83,3.2-5.77,0-11.42-4.59-14.41-2.56-1.71-5.55-2.78-8.12-3.63l-2.99-1.07c-7.05-2.46-14.95-5.23-19.54-11.1-4.38-5.66-3.95-14.63.96-20.5,1.6-1.82,3.63-3.52,5.77-4.7,3.84-2.24,8.54-3.42,13.99-3.42h.11c4.27,0,8.86.75,13.13,2.03.85.32,3.1,1.07,3.1,1.07,1.17.43,1.92-.64,1.92-.64h3.1v17.94h-3.42l-.32-.96c-.85-2.56-3.63-8.01-5.98-10.68-1.71-1.92-4.38-3.31-7.58-3.84-1.49-.32-2.88-.43-4.16-.43-1.39,0-2.67.11-3.95.43-4.16,1.07-8.65,4.59-8.65,9.93,0,8.11,10.25,11.64,14.63,13.13l1.6.53c6.62,2.24,13.45,4.48,18.69,9.5l-.53.21Z"/>
          <path class="cls-1" d="M540.74,108.84c1.17,0,2.14-.32,2.78-.96,1.07-1.07,1.6-2.99,1.6-6.09v-4.91h-30.22v-4.27l.21-.43,33.42-48.26h8.76v47.52h5.66v5.34h-5.66v5.98c0,2.46.53,4.06,1.49,5.02.75.64,1.82.96,3.2.96h1.92v3.63h-25.52v-3.63l2.35.11ZM545.12,91.44v-32.99l-23.06,32.99h23.06Z"/>
          <path class="cls-1" d="M577.8,52.68c-2.24-3.42-3.95-4.91-5.77-4.91h-1.5v-3.63h23.81v3.63h-1.82c-1.28,0-1.71.32-1.92.53-.43.64-.11,2.14.96,4.38l13.03,23.7,12.71-20.29c1.82-2.78,4.06-6.62,3.31-7.9-.32-.53-1.39-.64-2.24-.64h-2.03v-3.63h16.98v3.63h-1.6c-2.67,0-5.12,2.13-8.54,7.26l-15.91,25.63v21.36c.11,3.1.64,5.13,1.71,6.09.64.64,1.49.96,2.67.96h1.82v3.63h-23.7v-3.63h1.82c1.17,0,2.03-.32,2.67-.96,1.07-1.07,1.6-2.99,1.6-6.09v-17.3l-16.44-29.58c-.53-.96-1.07-1.82-1.6-2.56v.32Z"/>
          <path class="cls-1" d="M635.24,77.67c0-10.57,3.84-19.33,11.42-26.05,6.51-5.77,14.41-8.76,23.49-8.76s16.98,3.31,23.6,9.93c6.62,6.62,9.93,14.95,9.93,24.77s-3.42,18.69-10.04,25.41c-6.62,6.73-14.84,10.14-24.34,10.14s-17.72-3.31-24.24-9.82c-6.51-6.51-9.82-15.06-9.82-25.41v-.21ZM654.78,53.64c-4.48,5.34-6.73,13.35-6.73,23.7s2.35,19.01,7.05,24.66c3.52,4.27,8.33,6.41,14.2,6.41,6.19,0,11.43-2.35,15.48-7.05,4.06-4.7,6.09-12.28,6.09-22.53,0-11.1-2.35-19.54-6.94-25.09-3.52-4.27-8.54-6.41-14.84-6.41s-10.78,2.14-14.31,6.41v-.11Z"/>
          <path class="cls-1" d="M728.25,50.33c-.21.53-.32,1.17-.43,1.92-.11.85-.21,1.82-.21,2.78v29.26c0,2.99.11,5.55.43,8.01.43,3.74,1.28,6.73,2.46,8.76,1.17,2.03,2.88,3.74,5.12,5.13,2.14,1.28,4.81,1.92,8.01,1.92,3.42,0,8.11-.53,11.64-2.78,3.2-2.14,5.45-4.91,6.62-8.22,1.17-3.1,1.17-9.18,1.17-16.23v-25.2c0-3.52-.53-5.77-1.82-6.94-.75-.75-1.82-1.07-3.31-1.07h-2.03v-3.63h19.33v3.63h-2.56c-1.07.11-1.82.43-2.46,1.07-1.17,1.17-1.71,3.42-1.71,7.05v24.66c0,7.58-.11,13.35-1.39,17.51-1.28,4.16-3.84,7.79-7.58,10.78-3.63,2.88-9.5,4.59-16.23,4.59-3.1,0-6.51-.43-9.61-1.17-5.66-1.39-10.36-4.59-13.24-8.97-1.39-2.14-2.35-4.59-2.99-7.26-1.17-4.91-1.28-10.25-1.39-14.95v-.11c-.11-3.31-.11-10.89-.11-16.66v-9.61c0-5.55-1.49-6.83-3.74-7.05h-2.24v-3.63h23.92v3.63h-2.03c-.64,0-1.28.11-1.82.32-.32.11-.64.32-.85.64-.32.32-.53.75-.75,1.28l-.21.53Z"/>
        </g>
        <g id="ltd">
          <path class="cls-1" d="M441.66,173.9c4.59,0,6.92-1.35,8.33-4.78l.49-1.16h1.78v8.57h-28.35v-2.08h.92c.73,0,1.22-.18,1.59-.55.61-.55.92-1.71.92-3.49v-27.06c0-1.84-.31-2.94-.92-3.55-.37-.37-.86-.55-1.53-.55h-1.04v-2.08h13.71v2.08h-1.04c-.61,0-1.1.18-1.47.49-.61.61-.92,1.78-.92,3.55v30.61h7.53Z"/>
          <path class="cls-1" d="M458.44,145.92h-2.08v-8.75h37.04v8.82h-2.08l-.49-1.16c-1.47-3.61-3.86-5.08-8.33-5.08h-4.16v30.61c0,1.78.31,2.94.92,3.49.37.37.86.55,1.53.55h1.04v2.08h-13.71v-2.08h.98c.73,0,1.22-.18,1.59-.55.61-.61.92-1.71.92-3.55v-30.61h-4.16c-4.41,0-6.92,1.53-8.39,5.08l-.61,1.16Z"/>
          <path class="cls-1" d="M511.57,137.22c3.31,0,6.31.43,8.94,1.29,2.63.86,4.9,2.14,6.73,3.8,1.84,1.71,3.24,3.8,4.16,6.24.92,2.45,1.41,5.27,1.41,8.33s-.43,5.82-1.29,8.27c-.86,2.45-2.14,4.53-3.8,6.24-1.65,1.71-3.67,3-6,3.86-2.39.86-5.08,1.29-8.08,1.29h-17.02v-2.08h1.04c.67,0,1.16-.18,1.53-.55.61-.61.92-1.78.92-3.55v-27.06c0-1.78-.31-2.94-.92-3.49-.37-.37-.86-.55-1.53-.55h-1.04v-2.08h14.94v.06ZM511.57,139.8h-4.65v34.22h6.8c3.86,0,6.86-1.47,8.94-4.41,2.14-2.94,3.24-7.35,3.24-12.73,0-10.84-5.2-17.08-14.33-17.08Z"/>
        </g>
        <g id="luxury">
          <path class="cls-1" d="M218.02,234.12h0s.45-1.04.45-1.04h1.54v7.49h-13.41s-11.42,0-11.42,0v-1.81h.81c.66,0,1.11-.14,1.42-.44.52-.51.78-1.52.78-3.09v-23.71c0-1.59-.25-2.57-.78-3.09-.31-.29-.74-.44-1.32-.44h-.91v-1.81h12v1.81h-.94c-.54,0-.99.15-1.29.45-.52.51-.78,1.53-.78,3.09v26.8h6.54c4.02,0,6.07-1.17,7.3-4.2Z"/>
          <path class="cls-1" d="M233.52,237.78c2.95,0,5.05-2.78,5.71-3.79v-11.24c0-.45-.03-.87-.09-1.34-.04-.34-.16-.99-.51-1.48-.35-.5-.95-.49-1.28-.49h-.9v-1.82l.64-.1,6.13-1.06h1.45v1.09c0,7.36,0,16.15,0,16.26-.02,2.27.5,4.96,1.86,4.96h.92v1.82h-8.23v-2.95c-1.99,1.98-4.56,3.23-6.89,3.33-.11,0-.22,0-.33,0-1.93,0-3.65-.72-4.96-2.07-2.03-2.1-2.01-5.03-1.98-7.61,0-.33,0-.65,0-.96l.02-7.55c-.02-1.49-.25-2.45-.71-2.95-.22-.24-.52-.29-.87-.32-.08,0-.17-.01-.28-.01-.08,0-.91,0-.91,0v-1.82l6.79-1.17h1.44v.76s0,16.2,0,16.35c.04,2.79,1.04,4.2,2.97,4.2Z"/>
          <path class="cls-1" d="M272.02,238.76v1.82h-9.47v-1.81h.81c1.18,0,.3-1.14-.17-1.88-.21-.33-1.06-1.65-1.22-1.95l-2.33-3.7c-1.88,2.77-5.39,7.32-4.18,7.52h1.04v1.81h-7.39v-1.82h.85c.95,0,2.03-.76,3.01-2.13l5.24-7.67c-5.14-8.11-5.91-9.29-6-9.42-.47-.64-.88-1.02-1.29-1.19-.13-.05-.27-.06-.42-.06h-.76v-1.81h9.47v1.81h-.8c-.35,0-.4.26-.35.55.11.6.71,1.7,1.67,3.22l1.54,2.43,1.68-2.46.05-.07c.08-.11.16-.22.24-.34h0c.32-.47.81-1.17,1.18-1.84.56-1.03.69-1.48.23-1.48h-.8v-1.81h6.95v1.81h-.74s-1.07.03-1.81.83c-1.04,1.12-3.91,5.22-5.54,7.62l6.38,10.03c.86,1.29,1.55,1.93,2.16,1.98h.77Z"/>
          <path class="cls-1" d="M284.82,237.78c2.95,0,5.05-2.78,5.71-3.79v-11.24c0-.45-.03-.87-.09-1.34-.04-.34-.16-.99-.51-1.48-.35-.5-.95-.49-1.28-.49h-.9v-1.82l.64-.1,6.13-1.06h1.45v1.09c0,7.36,0,16.15,0,16.26-.02,2.27.5,4.96,1.86,4.96h.92v1.82h-8.23v-2.95c-1.99,1.98-4.56,3.23-6.89,3.33-.11,0-.22,0-.33,0-1.93,0-3.65-.72-4.96-2.07-2.03-2.1-2.01-5.03-1.98-7.61,0-.33,0-.65,0-.96l.02-7.55c-.02-1.49-.25-2.45-.71-2.95-.22-.24-.52-.29-.87-.32-.08,0-.17-.01-.28-.01-.08,0-.91,0-.91,0v-1.82l6.79-1.17h1.44v.76s0,16.2,0,16.35c.04,2.79,1.04,4.2,2.97,4.2Z"/>
          <path class="cls-1" d="M308.64,216.48v2.96c1.78-1.66,4.52-3.27,7.07-3.34h.02c.34,0,.69.02,1.04.12.6.16,1.21.5,1.61.89.41.39.65.95.69,1.58.04.69-.16,1.38-.56,1.92-.47.63-1.09.97-1.78.97-.06,0-.13,0-.19,0-.68-.07-1.29-.41-1.87-.75l-.03-.02c-.27-.16-.53-.31-.74-.39-.49-.2-.99-.3-1.43-.3-.38,0-.72.08-1,.23-.75.39-1.67,1.19-2.83,2.46,0,5.16,0,12.43,0,12.43,0,1.6.23,2.62.69,3.12.27.29.59.42,1.06.42h.9v1.81h-10.75v-1.81h.76s.07,0,.09,0c.53,0,.83-.11,1.1-.4.44-.48.67-1.39.69-2.77,0-.26.02-12.55.02-12.66,0-1.57-.23-2.59-.71-3.12-.29-.33-.67-.37-1.22-.35h-.83v-1.82l6.7-1.16h1.51Z"/>
          <path class="cls-1" d="M321.66,218.29h-.76v-1.82h10.19v1.81h-.84c-.54,0-.72.17-.81.34-.24.4-.17,1.11.19,2.05l5.62,13.26c1.17-3.37,4.23-12.16,4.36-12.55.3-.86.64-2.08.2-2.75-.1-.15-.29-.34-.86-.34h-.9v-1.81h7.67v1.82h-.58c-.06,0-1.68.01-2.45,1.95l-6.81,19.58-2.54,6.96c-1.22,3.3-3.62,5.43-6.1,5.43-2.19,0-4.41-1.13-4.44-3.29,0-.66.21-1.29.62-1.75.44-.51,1.06-.79,1.74-.79,1.14,0,1.74.74,2.27,1.38.41.49.76.91,1.23.91.76,0,1.35-.82,1.71-1.5.07-.13.42-.96,1.95-5.02l.33-.9-8.96-20.88c-.76-1.73-1.35-2.09-2.06-2.09Z"/>
          <path class="cls-1" d="M363.26,207.98h-.81v-1.81h12.24v1.81h-.94c-.54,0-.94.17-1.19.52-.49.67-.5,1.94-.01,3.49.11.31,5.17,14.62,6.98,19.71l5.1-13.39-2.12-6.68c-.91-2.55-1.85-3.64-3.13-3.64h-.81v-1.81h12.24v1.81h-.63c-1.29,0-1.64.73-1.71.92-.2.48-.21,1.02-.03,1.71l6.19,20c.33-1.07.87-2.84,1.49-4.88l.3-1c.95-3.12,2.04-6.71,2.87-9.42.75-2.45,1.27-4.18,1.29-4.24.42-1.36.46-2.17.13-2.6-.25-.33-.81-.49-1.76-.49h-1.12v-1.81h9.42v1.81h-.93c-1.43,0-2.39.86-3.12,2.78l-9.07,29.81h-2.37l-.17-.52-5.79-18.14-7.07,18.66h-2.25l-.18-.51-9.95-28.57c-.91-2.46-1.82-3.52-3.07-3.52Z"/>
          <path class="cls-1" d="M419.66,224.46c0-.72,0-2.36-.01-2.62-.01-.36-.06-.63-.16-.87-.29-.73-.81-1.32-1.56-1.81-.79-.5-1.69-.75-2.65-.75-.67,0-1.27.16-1.82.47-.76.43-1.29,1.09-1.57,1.95-.11.34-.19.77-.24,1.06v.07c-.15.71-.29,1.44-.75,2h0c-.48.57-1.17.91-1.84.91-.95,0-1.69-.43-2.06-1.22-.6-1.23-.13-3.01.67-4.01.51-.64,1.15-1.23,1.86-1.69,1.83-1.2,4.17-1.86,6.59-1.86.91,0,1.82.1,2.68.29,1.7.38,3.89,1.32,4.92,2.56.48.56.87,1.29,1.08,2.02.35,1.23.35,2.55.35,3.52,0,.15,0,2.03-.01,6.13v.09c0,2.21-.01,4.71-.01,4.78,0,.91.05,1.93.45,2.68.15.27.35.44.63.52.17.05.32.07.42.08.03,0,.06,0,.1,0,.06,0,.13,0,.16,0h.36v1.82h-4.27c-2.26-.12-3-1.19-3.22-2.09l-1.31.81c-1.93,1.09-4.13,1.68-6.21,1.68-.78,0-1.53-.09-2.24-.27-1.45-.37-2.8-1.35-3.62-2.63-.51-.78-.8-1.92-.9-2.72-.04-.29-.06-.61-.06-.95-.12-3.38,2.14-5.73,4.12-6.71,2.37-1.18,4.57-1.7,6.51-2.17h.06c1.23-.3,2.49-.6,3.59-1.05ZM419.64,227.01c-.83.34-1.64.59-2.43.84-1.88.59-3.66,1.15-5.19,2.8-.78.85-1.17,1.91-1.13,3.07v.12c0,.55,0,2.01,1.85,3.02.35.19,1.13.41,2.19.41s2.19-.21,3.34-.63c.55-.2,1.09-.53,1.38-.72v-8.91Z"/>
          <path class="cls-1" d="M437.31,209.78v6.71h4.3v2.46h-4.22v16.19c0,.77,0,2.57.61,3.07.13.11.27.16.46.16.18,0,.39-.04.63-.13.14-.05.4-.15.9-.4l.79-.38.55,1.77-.56.3c-.36.19-.8.39-1.38.63-.86.35-2.14.81-3.41.81-.8,0-1.51-.19-2.12-.55-1.77-1.08-1.92-3.42-1.92-5.53v-4.58c0-3.6.01-9.27.02-11.37h-3.37v-2.02l.59-.13c1-.23,4.37-1.38,5.78-6.46l.15-.56h2.17Z"/>
          <path class="cls-1" d="M448.79,227.08c-.07,1.67.1,3.31.48,4.76.46,1.71,1.22,3.13,2.22,4.1,1.12,1.11,2.75,1.77,4.35,1.77.55,0,1.09-.08,1.59-.23,1.94-.56,3.7-2.16,4.71-4.28l.33-.71,1,.51c.06.03.09.05.13.07.02,0,.03.02.04.02h.01s.05.03.08.05c.03.02.07.04.12.07l.58.3-.23.63c-1.11,2.96-3.49,5.37-6.19,6.3-.97.34-2.01.51-3.09.51-1.2,0-2.44-.21-3.68-.62-2.34-.79-4.32-2.19-5.71-4.06-1.8-2.43-2.67-5.87-2.32-9.21.26-2.55,1.2-4.98,2.63-6.83,1.95-2.5,4.96-4.06,8.05-4.17.12,0,.23,0,.35,0,2.57,0,5.1,1,6.92,2.74,2,1.92,3.19,4.73,3.19,7.52v.77s-15.56,0-15.56,0ZM448.99,224.76h10.23c-.02-1.68-.6-3.31-1.57-4.42-.88-1.02-2.13-1.63-3.35-1.63-.26,0-.52.03-.77.08-1.1.25-2.14,1-2.93,2.11-.86,1.2-1.41,2.52-1.61,3.86Z"/>
          <path class="cls-1" d="M475.56,216.48v2.96c1.78-1.66,4.52-3.27,7.07-3.34h.02c.34,0,.69.02,1.04.12.6.16,1.21.5,1.61.89.41.39.65.95.69,1.58.04.69-.16,1.38-.56,1.92-.47.63-1.09.97-1.78.97-.06,0-.13,0-.19,0-.68-.07-1.29-.41-1.87-.75l-.03-.02c-.27-.16-.52-.31-.74-.39-.49-.2-.99-.3-1.43-.3-.38,0-.72.08-1,.23-.75.39-1.67,1.19-2.83,2.46,0,5.16,0,12.43,0,12.43,0,1.6.23,2.62.69,3.12.27.29.59.42,1.06.42h.9v1.81h-10.75v-1.81h.76s.07,0,.09,0c.53,0,.83-.11,1.1-.4.44-.48.67-1.39.69-2.77,0-.26.02-12.55.02-12.66,0-1.57-.23-2.59-.71-3.12-.29-.33-.67-.37-1.22-.35h-.83v-1.82l6.7-1.16h1.51Z"/>
          <path class="cls-1" d="M506.86,235.22v-23.71c0-1.58-.25-2.56-.79-3.09-.31-.3-.75-.45-1.32-.45h-.92v-1.81h23.94v6.88h-1.81l-.2-.47c-1.2-2.93-3.45-4.18-7.53-4.18h-5.4v12.43h3.99c3.34,0,4.95-.66,5.78-2.37l.31-.65h1.81v8.67h-1.82l-.31-.7c-.84-1.98-2.4-2.71-5.77-2.71h-3.99v15.27h6.42c2.8,0,4.64-.58,5.91-1.94.26-.28.82-1.03,1.69-2.97l.15-.34h1.82v7.48h-24.99v-1.81h.91c.58,0,1.02-.15,1.34-.45.52-.52.78-1.53.78-3.09Z"/>
          <path class="cls-1" d="M554.31,238.76v1.82h-9.47v-1.81h.81c1.18,0,.3-1.14-.17-1.88-.21-.33-1.06-1.65-1.22-1.95l-2.33-3.7c-1.88,2.77-5.39,7.32-4.18,7.52h1.04v1.81h-7.39v-1.82h.85c.95,0,2.03-.76,3-2.13l5.24-7.67c-5.14-8.11-5.91-9.29-6-9.42-.47-.64-.88-1.02-1.29-1.19-.13-.05-.27-.06-.42-.06h-.76v-1.81h9.46v1.81h-.8c-.35,0-.4.26-.35.55.11.6.71,1.7,1.67,3.22l1.54,2.43,1.68-2.46.05-.07c.08-.11.16-.22.24-.34h0c.32-.47.81-1.17,1.18-1.84.56-1.03.69-1.48.23-1.48h-.8v-1.81h6.95v1.81h-.74s-1.07.03-1.81.83c-1.04,1.12-3.91,5.22-5.54,7.62l6.38,10.03c.86,1.29,1.55,1.93,2.16,1.98h.77Z"/>
          <path class="cls-1" d="M558.35,246.88v-25.1c-.17-2.16-1.12-2.32-1.81-2.32h-.91v-1.82l6.8-1.17h1.37v1.48c1.58-1.23,3.37-1.87,5.22-1.87,6.05,0,10.44,4.95,10.68,12.04,0,.35,0,.61,0,.84-.25,7.18-4.55,12.01-10.69,12.01-2.29,0-4.1-.97-5.22-1.8v7.72c0,1.59.23,2.62.69,3.12.26.28.59.4,1.06.4h.91v1.81h-10.76v-1.81h.86c.5,0,.84-.13,1.11-.41.46-.52.69-1.54.69-3.12ZM563.8,236.14c.54.56,2.09,1.9,4.56,1.9.89,0,1.68-.17,2.35-.49.49-.23.95-.59,1.32-1.04.43-.51.8-1.15,1.11-1.94.29-.73.51-1.59.66-2.56.31-2.02.34-4.18.09-6.43-.12-.99-.31-1.87-.6-2.7-.29-.81-.65-1.51-1.06-2.08-1.04-1.41-2.66-1.7-3.84-1.7-.73,0-1.48.11-2.19.33-.71.21-1.3.53-1.78.95-.31.26-.5.46-.62.59v15.17Z"/>
          <path class="cls-1" d="M588.58,227.08c-.07,1.67.1,3.31.48,4.76.46,1.71,1.22,3.13,2.22,4.1,1.12,1.11,2.75,1.77,4.35,1.77.55,0,1.09-.08,1.59-.23,1.94-.56,3.7-2.16,4.71-4.28l.33-.71,1,.51c.06.03.09.05.13.07.02,0,.03.02.04.02h.01s.05.03.08.05c.03.02.07.04.12.07l.58.3-.23.63c-1.11,2.96-3.49,5.37-6.19,6.3-.97.34-2.01.51-3.09.51-1.2,0-2.44-.21-3.68-.62-2.34-.79-4.32-2.19-5.71-4.06-1.8-2.43-2.67-5.87-2.32-9.21.26-2.55,1.2-4.98,2.63-6.83,1.95-2.5,4.96-4.06,8.05-4.17.12,0,.23,0,.35,0,2.57,0,5.1,1,6.92,2.74,2,1.92,3.19,4.73,3.19,7.52v.77s-15.56,0-15.56,0ZM588.78,224.76h10.23c-.02-1.68-.6-3.31-1.57-4.42-.88-1.02-2.13-1.63-3.35-1.63-.26,0-.52.03-.77.08-1.1.25-2.14,1-2.93,2.11-.86,1.2-1.41,2.52-1.61,3.86Z"/>
          <path class="cls-1" d="M615.35,216.48v2.96c1.78-1.66,4.52-3.27,7.07-3.34h.02c.34,0,.69.02,1.04.12.6.16,1.21.5,1.61.89.41.39.65.95.69,1.58.04.69-.16,1.38-.56,1.92-.47.63-1.09.97-1.78.97-.06,0-.13,0-.19,0-.68-.07-1.29-.41-1.87-.75l-.03-.02c-.27-.16-.52-.31-.74-.39-.49-.2-.99-.3-1.43-.3-.38,0-.72.08-1,.23-.75.39-1.67,1.19-2.83,2.46,0,5.16,0,12.43,0,12.43,0,1.6.23,2.62.69,3.12.27.29.59.42,1.06.42h.9v1.81h-10.75v-1.81h.76s.07,0,.09,0c.53,0,.83-.11,1.1-.4.44-.48.67-1.39.69-2.77,0-.26.02-12.55.02-12.66,0-1.57-.23-2.59-.71-3.12-.29-.33-.67-.37-1.22-.35h-.83v-1.82l6.7-1.16h1.51Z"/>
          <path class="cls-1" d="M638.43,238.76v1.81h-10.75v-1.81h.91c.46,0,.79-.13,1.06-.42.46-.51.69-1.53.69-3.12v-12.31c0-1.57-.23-2.58-.71-3.09-.28-.31-.61-.36-1.03-.36h-1.04v-1.82l.64-.1,6.17-1.06h1.42v18.75c0,1.59.23,2.61.69,3.13.25.28.58.41,1.05.41h.9ZM629.44,210.39c0-1.76,1.43-3.18,3.18-3.18s3.18,1.43,3.18,3.18c0,1.76-1.43,3.18-3.18,3.18s-3.18-1.43-3.18-3.18Z"/>
          <path class="cls-1" d="M646.26,227.08c-.07,1.67.1,3.31.48,4.76.46,1.71,1.22,3.13,2.22,4.1,1.12,1.11,2.75,1.77,4.35,1.77.55,0,1.09-.08,1.59-.23,1.94-.56,3.7-2.16,4.71-4.28l.33-.71,1,.51c.06.03.09.05.13.07.02,0,.03.02.04.02h.01s.05.03.08.05c.03.02.07.04.12.07l.58.3-.23.63c-1.11,2.96-3.49,5.37-6.19,6.3-.97.34-2.01.51-3.09.51-1.2,0-2.44-.21-3.68-.62-2.34-.79-4.32-2.19-5.71-4.06-1.8-2.43-2.67-5.87-2.32-9.21.26-2.55,1.2-4.98,2.63-6.83,1.95-2.5,4.96-4.06,8.05-4.17.12,0,.23,0,.35,0,2.57,0,5.1,1,6.92,2.74,2,1.92,3.19,4.73,3.19,7.52v.77s-15.56,0-15.56,0ZM646.46,224.76h10.23c-.02-1.68-.6-3.31-1.57-4.42-.88-1.02-2.13-1.63-3.35-1.63-.26,0-.52.03-.77.08-1.1.25-2.14,1-2.93,2.11-.86,1.2-1.41,2.52-1.61,3.86Z"/>
          <path class="cls-1" d="M673.04,216.48v2.76c1.93-1.85,4.49-3.03,6.9-3.13.11,0,.22,0,.33,0,1.92,0,3.64.72,4.96,2.08,1.16,1.19,1.86,3.05,1.97,5.22v4.36c.01,3.34,0,7.43,0,7.46,0,1.59.23,2.61.69,3.12.07.07.14.14.22.19.18.13.4.2.7.22.04,0,.22,0,.38,0,.03,0,.06,0,.08,0h.59v1.81h-10.76v-1.81h.58c.2,0,.4,0,.6-.02.29-.02.57-.17.78-.4.47-.51.69-1.53.69-3.12v-.4c-.02-7.14-.02-11.06-.02-11.36-.04-2.78-1.04-4.2-2.97-4.2-3.12,0-5.2,2.79-5.71,3.57v12.38c-.01,1.59.22,2.61.68,3.12.25.28.6.42,1.06.42h.89v1.81h-10.75v-1.81h.91c.47,0,.79-.13,1.05-.41.47-.52.69-1.54.69-3.12v-11.8c.05-1.85-.17-3.04-.68-3.62-.29-.33-.64-.37-1.18-.37h-.09s-.82,0-.82,0v-1.82l6.8-1.14h1.43Z"/>
          <path class="cls-1" d="M698.12,228.6c.12,2.76.85,7.61,4.44,9.03.68.26,1.36.4,2.02.4h.19c2.72-.05,4.99-1.83,6.37-5.02l.33-.77,1.93,1.09-.23.61c-1.18,3.14-3.33,5.47-5.88,6.38-1.19.43-2.46.65-3.76.65-.44,0-.88-.03-1.32-.08-3.86-.43-7.27-2.97-8.9-6.62-1.03-2.3-1.34-5.11-.87-7.92.92-5.52,5.07-9.83,9.88-10.24.3-.03.62-.04.99-.04,2.08,0,4.15.55,5.98,1.59,1.03.59,3.07,2.21,3.42,4.09.15.75-.02,1.46-.49,2.11-.46.61-1.16.97-1.92.97-.47,0-.93-.14-1.32-.4-.9-.61-1.1-1.6-1.28-2.48v-.02c-.04-.21-.09-.44-.14-.65-.45-1.79-1.94-2.91-3.89-2.91-.1,0-.22,0-.34,0h-.02c-4.88.4-5.34,6.59-5.18,10.24Z"/>
          <path class="cls-1" d="M722.59,227.08c-.07,1.67.1,3.31.48,4.76.46,1.71,1.22,3.13,2.22,4.1,1.12,1.11,2.75,1.77,4.35,1.77.55,0,1.09-.08,1.59-.23,1.94-.56,3.7-2.16,4.71-4.28l.33-.71,1,.51c.06.03.09.05.13.07.02,0,.03.02.04.02h.01s.05.03.08.05c.03.02.07.04.12.07l.58.3-.23.63c-1.11,2.96-3.49,5.37-6.19,6.3-.97.34-2.01.51-3.09.51-1.2,0-2.44-.21-3.68-.62-2.34-.79-4.32-2.19-5.71-4.06-1.8-2.43-2.67-5.87-2.32-9.21.26-2.55,1.2-4.98,2.63-6.83,1.95-2.5,4.96-4.06,8.05-4.17.12,0,.23,0,.35,0,2.57,0,5.1,1,6.92,2.74,2,1.92,3.19,4.73,3.19,7.52v.77s-15.56,0-15.56,0ZM722.79,224.76h10.23c-.02-1.68-.6-3.31-1.57-4.42-.88-1.02-2.13-1.63-3.35-1.63-.26,0-.52.03-.77.08-1.1.25-2.14,1-2.93,2.11-.86,1.2-1.41,2.52-1.61,3.86Z"/>
          <path class="cls-1" d="M761.49,234.54c-.26,1.78-1.29,3.4-2.83,4.46-1.87,1.3-3.99,1.96-6.3,1.96-1.06,0-2.27-.11-3.58-.34-1.15-.2-4.27-1.03-4.3-1.04-.36-.09-.48.14-.48.14h-1.73v-7.76h1.81l.14.38c.43,1.15.98,2.24,1.65,3.25.29.43.61.88,1,1.24h0c.39.38.91.73,1.56,1.05,1.22.6,2.59.92,3.97.92,1.26,0,2.29-.32,3.08-.95.7-.56,1.1-1.34,1.1-2.19.01-.96-.45-1.9-1.26-2.56-1.14-.94-3.08-1.74-4.8-2.44-3.92-1.61-8.36-3.44-8.29-7.55.03-1.51.61-2.95,1.63-4.05.64-.68,1.47-1.3,2.34-1.74,1.3-.69,2.89-1.09,4.72-1.21.32-.02.63-.02.93-.02,1.77,0,3.46.27,5.28.84.13.04.34.12.43.14.15.03.22.02.26.01.14-.04.2-.15.2-.15h1.68v2.04s0,4.66,0,4.66h-1.82l-.15-.36c-.37-.91-1.42-2.72-2.32-3.61-.24-.24-.5-.45-.82-.64-.95-.58-1.84-.82-2.96-.83-1.82,0-4.01.91-4.01,2.96,0,2.38,3.44,3.74,6.48,4.94,2.27.89,4.44,1.85,6,3.76,1.12,1.31,1.61,2.98,1.38,4.7Z"/>
        </g>
        <rect id="DASH" class="cls-1" x="548.5" y="158.32" width="106.04" height="3.63" rx="1.58" ry="1.58"/>
        <rect id="DASH-2" data-name="DASH" class="cls-1" x="299.12" y="158.32" width="106.04" height="3.63" rx="1.58" ry="1.58"/>
      </g>
      <g id="Logo">
        <path class="cls-1" d="M6.84,194.62S1.04,190.54.05,165.75c-.99-24.78,13.54-46.25,25.17-59.17,18.44-20.48,27.21-29.34,41.51-47.41,11.7-14.79,15.67-19.54,20.61-33.85,3.56-10.31,3.9-17.6,4.5-25.32,0,0,16.78,25.94,16.23,52.05s-8.72,40.96-24.29,56.41c-15.57,15.45-33.17,27.98-46.42,43-5.5,6.24-15.12,19.82-14.07,37.97s4.31,34.88,30.3,55.09c0,0-21.64-9.88-32.01-29.64-10.38-19.76-8.83-38.03-6.18-45.54,2.65-7.51,6.35-22.24,22.19-38.14s38.14-34.33,44.43-41.95,11.68-20.11,12.92-30.03c1.1-8.89.11-20.37-.44-22.63,0,0-5.58,17.24-19.65,34.88-26.94,33.78-30.69,33.95-45.48,48.68-14.05,14-23.71,35.51-24.56,49.95-.51,8.62-.55,16.83,2.04,24.51Z"/>
        <path class="cls-1" d="M110.38,109.45c7.62-9.86,12.21-24.44,10.22-43.98,0,0-2.24,22.16-15.94,37.28-20.7,22.85-35.02,27.52-49.15,41.42s-35.77,38.42-17.55,74.79c18.21,36.37,65.52,35.27,93.72,22.96,28.21-12.31,45.21-37.86,45.76-63.92.55-26.05-16.23-39.91-38.58-40.18s-27.32,18.08-27.32,18.08c15.07-7.37,26.55-1.13,31.19,2.95s10.87,11.37,10.65,26.22c-.19,13.1-3.48,30.14-24.23,43.27-20.75,13.14-44.71,8.72-44.71,8.72,2.87-1.05,20.37-.28,34.11-13.41,13.74-13.14,14.85-32.79,14.85-32.79-3.68,9.89-6.43,16.01-17.06,23.96-14.65,10.96-38.69,8.22-48.63,0s-14.84-21.97-13.03-33.84c2.1-13.74,7.9-22.1,20.26-35.77,3.89-4.31,20.53-16.48,35.44-35.77Z"/>
      </g>
    </g>
  </g>
</svg>