<?xml version="1.0" encoding="UTF-8"?>
<svg id="Layer_2" data-name="Layer 2" xmlns="http://www.w3.org/2000/svg" viewBox="0 0 535.22 752.98">
  <defs>
    <style>
      .cls-1 {
        fill: #0f1012;
      }
    </style>
  </defs>
  <g id="Layer_1-2" data-name="Layer 1">
    <g id="Logo_Icon_Black">
      <path class="cls-1" d="M20.62,586.98S3.14,574.66.15,499.91s40.84-139.5,75.91-178.46c55.6-61.76,82.08-88.5,125.19-143,35.29-44.61,47.25-58.94,62.16-102.08,10.75-31.1,11.75-53.07,13.58-76.38,0,0,50.61,78.24,48.94,156.98s-26.3,123.52-73.25,170.13-100.05,84.4-140,129.68c-16.59,18.81-45.61,59.76-42.45,114.53s12.98,105.21,91.39,166.14c0,0-65.26-29.8-96.55-89.4-31.3-59.6-26.64-114.7-18.64-137.34,7.99-22.64,19.14-67.09,66.92-115.03,47.78-47.94,115.03-103.55,134.01-126.52,18.98-22.97,35.24-60.65,38.95-90.56,3.33-26.8.33-61.43-1.33-68.25,0,0-16.83,51.99-59.26,105.21-81.24,101.88-92.56,102.38-137.17,146.83-42.38,42.22-71.5,107.11-74.08,150.66-1.54,25.99-1.66,50.77,6.16,73.91Z"/>
      <path class="cls-1" d="M332.92,330.11c22.98-29.73,36.83-73.72,30.84-132.65,0,0-6.76,66.83-48.07,112.43-62.43,68.92-105.63,82.99-148.24,124.94-42.62,41.95-107.87,115.86-52.94,225.57,54.94,109.7,197.6,106.38,282.67,69.25,85.07-37.12,136.34-114.2,138-192.77s-48.94-120.36-116.36-121.19c-67.42-.83-82.4,54.52-82.4,54.52,45.45-22.22,80.07-3.41,94.06,8.91s32.79,34.29,32.13,79.07c-.59,39.51-10.49,90.89-73.08,130.51-62.59,39.62-134.84,26.3-134.84,26.3,8.66-3.16,61.43-.83,102.88-40.45,41.45-39.62,44.78-98.88,44.78-98.88-11.11,29.82-19.38,48.28-51.44,72.25-44.2,33.04-116.7,24.8-146.66,0-29.96-24.8-44.75-66.25-39.29-102.05,6.33-41.45,23.84-66.65,61.09-107.87,11.74-12.98,61.93-49.71,106.87-107.87Z"/>
    </g>
  </g>
</svg>