<?xml version="1.0" encoding="UTF-8"?>
<svg id="Layer_1" data-name="Layer 1" xmlns="http://www.w3.org/2000/svg" viewBox="0 0 841.89 595.28">
  <defs>
    <style>
      .cls-1, .cls-2 {
        fill: #d3b368;
        stroke-width: 0px;
      }

      .cls-2, .cls-3 {
        opacity: .95;
      }
    </style>
  </defs>
  <g id="TEXT">
    <g id="group_2" data-name="group 2">
      <g id="pools" class="cls-3">
        <path class="cls-1" d="m71.44,300.93h-30.65v-4.65h2.19c1.64,0,2.87-.41,3.69-1.23,1.37-1.23,2.05-3.83,2.05-7.8v-60.47c0-3.97-.68-6.57-2.05-7.94-.82-.82-1.92-1.23-3.42-1.23h-2.33v-4.65h38.99c11.22,0,19.97,2.87,25.31,8.21,3.97,3.97,6.02,9.17,6.02,15.32,0,7.66-3.28,13.95-9.44,18.33-6.02,4.24-14.78,6.43-25.31,6.43h-12.72v25.99c0,4.1.68,6.57,2.05,7.93.82.82,1.92,1.23,3.42,1.23h2.33l-.14,4.51Zm-7.66-45.28h12.72c5.75,0,10.4-1.64,13.54-4.79,3.28-3.28,5.06-8.21,5.06-14.23,0-11.63-5.34-17.79-15.32-17.79h-16.01v36.8Z"/>
        <path class="cls-1" d="m119.74,256.6c0-13.54,4.93-24.76,14.64-33.38,8.35-7.39,18.47-11.22,30.1-11.22s21.75,4.24,30.24,12.72c8.48,8.48,12.72,19.15,12.72,31.74s-4.38,23.94-12.86,32.56c-8.48,8.62-19.02,13-31.19,13s-22.71-4.24-31.06-12.59c-8.35-8.35-12.59-19.29-12.59-32.56v-.27Zm25.04-30.78c-5.75,6.84-8.62,17.1-8.62,30.37s3.01,24.35,9.03,31.6c4.51,5.47,10.67,8.21,18.2,8.21,7.94,0,14.64-3.01,19.84-9.03,5.2-6.02,7.8-15.73,7.8-28.87,0-14.23-3.01-25.04-8.89-32.15-4.51-5.47-10.95-8.21-19.02-8.21s-13.82,2.74-18.33,8.21v-.14Z"/>
        <path class="cls-1" d="m218.93,256.6c0-13.54,4.93-24.76,14.64-33.38,8.35-7.39,18.47-11.22,30.1-11.22s21.75,4.24,30.24,12.72c8.48,8.48,12.72,19.15,12.72,31.74s-4.38,23.94-12.86,32.56c-8.48,8.62-19.02,13-31.19,13s-22.71-4.24-31.06-12.59c-8.35-8.35-12.59-19.29-12.59-32.56v-.27Zm25.04-30.78c-5.75,6.84-8.62,17.1-8.62,30.37s3.01,24.35,9.03,31.6c4.51,5.47,10.67,8.21,18.2,8.21,7.94,0,14.64-3.01,19.84-9.03,5.2-6.02,7.8-15.73,7.8-28.87,0-14.23-3.01-25.04-8.89-32.15-4.52-5.47-10.95-8.21-19.02-8.21s-13.82,2.74-18.33,8.21v-.14Z"/>
        <path class="cls-1" d="m354.38,295.32c10.26,0,15.46-3.01,18.61-10.67l1.09-2.6h3.97v19.15h-63.34v-4.65h2.05c1.64,0,2.74-.41,3.56-1.23,1.37-1.23,2.05-3.83,2.05-7.8v-60.47c0-4.1-.68-6.57-2.05-7.94-.82-.82-1.92-1.23-3.42-1.23h-2.33v-4.65h30.65v4.65h-2.33c-1.37,0-2.46.41-3.28,1.09-1.37,1.37-2.05,3.97-2.05,7.93v68.41h16.83Z"/>
        <path class="cls-1" d="m449.61,261.12c4.24,4.1,6.57,9.3,6.57,15.05,0,3.15-.68,6.16-2.05,9.3-3.01,6.84-9.71,10.95-13.41,12.72-5.34,2.6-11.49,3.97-17.92,3.97-3.83,0-7.66-.55-11.36-1.51-7.11-1.92-13.27-4.65-13.68-4.79-1.51-.55-2.46.82-2.46.82h-3.97v-25.04h4.38l.41,1.37c3.28,11.08,8.35,17.92,15.32,21.07,2.46,1.09,5.2,1.78,7.8,2.05.96.14,1.92.14,2.87.14,6.57,0,14.78-2.33,18.33-8.76,4.1-7.39,0-14.64-5.88-18.47-3.28-2.19-7.11-3.56-10.4-4.65l-3.83-1.37c-9.03-3.15-19.15-6.7-25.04-14.23-5.61-7.25-5.06-18.74,1.23-26.27,2.05-2.33,4.65-4.51,7.39-6.02,4.93-2.87,10.95-4.38,17.92-4.38h.14c5.47,0,11.36.96,16.83,2.6,1.09.41,3.97,1.37,3.97,1.37,1.51.55,2.46-.82,2.46-.82h3.97v22.98h-4.38l-.41-1.23c-1.09-3.28-4.65-10.26-7.66-13.68-2.19-2.46-5.61-4.24-9.71-4.93-1.92-.41-3.69-.55-5.34-.55-1.78,0-3.42.14-5.06.55-5.34,1.37-11.08,5.88-11.08,12.72,0,10.4,13.13,14.91,18.74,16.83l2.05.68c8.48,2.87,17.24,5.75,23.94,12.18l-.68.27Z"/>
        <path class="cls-1" d="m500.64,296.55c1.5,0,2.74-.41,3.56-1.23,1.37-1.37,2.05-3.83,2.05-7.8v-6.29h-38.72v-5.47l.27-.55,42.82-61.84h11.22v60.88h7.25v6.84h-7.25v7.66c0,3.15.68,5.2,1.92,6.43.96.82,2.33,1.23,4.1,1.23h2.46v4.65h-32.7v-4.65l3.01.14Zm5.61-22.3v-42.28l-29.55,42.28h29.55Z"/>
        <path class="cls-1" d="m548.12,224.59c-2.87-4.38-5.06-6.29-7.39-6.29h-1.92v-4.65h30.51v4.65h-2.33c-1.64,0-2.19.41-2.46.68-.55.82-.14,2.74,1.23,5.61l16.69,30.37,16.28-25.99c2.33-3.56,5.2-8.48,4.24-10.12-.41-.68-1.78-.82-2.87-.82h-2.6v-4.65h21.75v4.65h-2.05c-3.42,0-6.57,2.74-10.94,9.3l-20.38,32.83v27.36c.14,3.97.82,6.57,2.19,7.8.82.82,1.92,1.23,3.42,1.23h2.33v4.65h-30.37v-4.65h2.33c1.51,0,2.6-.41,3.42-1.23,1.37-1.37,2.05-3.83,2.05-7.8v-22.16l-21.07-37.9c-.68-1.23-1.37-2.33-2.05-3.28v.41Z"/>
        <path class="cls-1" d="m621.73,256.6c0-13.54,4.92-24.76,14.64-33.38,8.35-7.39,18.47-11.22,30.1-11.22s21.75,4.24,30.24,12.72c8.48,8.48,12.72,19.15,12.72,31.74s-4.38,23.94-12.86,32.56c-8.48,8.62-19.02,13-31.19,13s-22.71-4.24-31.06-12.59c-8.35-8.35-12.59-19.29-12.59-32.56v-.27Zm25.04-30.78c-5.75,6.84-8.62,17.1-8.62,30.37s3.01,24.35,9.03,31.6c4.52,5.47,10.67,8.21,18.2,8.21,7.93,0,14.64-3.01,19.84-9.03,5.2-6.02,7.8-15.73,7.8-28.87,0-14.23-3.01-25.04-8.89-32.15-4.51-5.47-10.94-8.21-19.02-8.21s-13.82,2.74-18.33,8.21v-.14Z"/>
        <path class="cls-1" d="m740.9,221.58c-.27.68-.41,1.51-.55,2.46-.14,1.09-.27,2.33-.27,3.56v37.49c0,3.83.14,7.11.55,10.26.55,4.79,1.64,8.62,3.15,11.22,1.5,2.6,3.69,4.79,6.57,6.57,2.74,1.64,6.16,2.46,10.26,2.46,4.38,0,10.4-.68,14.91-3.56,4.1-2.74,6.98-6.29,8.48-10.53,1.51-3.97,1.51-11.77,1.51-20.8v-32.29c0-4.52-.68-7.39-2.33-8.89-.96-.96-2.33-1.37-4.24-1.37h-2.6v-4.65h24.76v4.65h-3.28c-1.37.14-2.33.55-3.15,1.37-1.51,1.51-2.19,4.38-2.19,9.03v31.6c0,9.71-.14,17.1-1.78,22.44-1.64,5.34-4.92,9.99-9.71,13.82-4.65,3.69-12.18,5.88-20.8,5.88-3.97,0-8.35-.55-12.31-1.5-7.25-1.78-13.27-5.88-16.97-11.49-1.78-2.74-3.01-5.88-3.83-9.3-1.5-6.29-1.64-13.13-1.78-19.15v-.14c-.14-4.24-.14-13.96-.14-21.34v-12.31c0-7.11-1.92-8.76-4.79-9.03h-2.87v-4.65h30.65v4.65h-2.6c-.82,0-1.64.14-2.33.41-.41.14-.82.41-1.09.82-.41.41-.68.96-.96,1.64l-.27.68Z"/>
      </g>
      <g id="ltd" class="cls-3">
        <path class="cls-1" d="m373.69,379.9c5.88,0,8.86-1.73,10.67-6.12l.63-1.49h2.27v10.98h-36.32v-2.67h1.18c.94,0,1.57-.24,2.04-.71.79-.71,1.18-2.2,1.18-4.47v-34.67c0-2.35-.39-3.77-1.18-4.55-.47-.47-1.1-.71-1.96-.71h-1.33v-2.67h17.57v2.67h-1.33c-.79,0-1.41.24-1.88.63-.78.79-1.18,2.28-1.18,4.55v39.22h9.65Z"/>
        <path class="cls-1" d="m395.18,344.05h-2.67v-11.22h47.46v11.3h-2.67l-.63-1.49c-1.88-4.63-4.94-6.51-10.67-6.51h-5.33v39.22c0,2.27.39,3.77,1.18,4.47.47.47,1.1.71,1.96.71h1.33v2.67h-17.57v-2.67h1.26c.94,0,1.57-.24,2.04-.71.78-.78,1.18-2.2,1.18-4.55v-39.22h-5.33c-5.65,0-8.86,1.96-10.75,6.51l-.78,1.49Z"/>
        <path class="cls-1" d="m463.27,332.91c4.24,0,8.08.55,11.45,1.65,3.37,1.1,6.28,2.74,8.63,4.86,2.35,2.2,4.16,4.86,5.33,8s1.8,6.75,1.8,10.67-.55,7.45-1.65,10.59c-1.1,3.14-2.74,5.8-4.86,8s-4.71,3.84-7.69,4.94c-3.06,1.1-6.51,1.65-10.36,1.65h-21.81v-2.67h1.33c.86,0,1.49-.24,1.96-.71.79-.78,1.18-2.27,1.18-4.55v-34.67c0-2.27-.39-3.77-1.18-4.47-.47-.47-1.1-.71-1.96-.71h-1.33v-2.67h19.14v.08Zm0,3.29h-5.96v43.85h8.71c4.94,0,8.79-1.88,11.45-5.65,2.74-3.77,4.16-9.41,4.16-16.32,0-13.89-6.67-21.89-18.36-21.89Z"/>
      </g>
      <rect id="DASH" class="cls-2" x="510.58" y="359.94" width="135.87" height="4.65" rx="1.66" ry="1.66"/>
      <rect id="DASH-2" data-name="DASH" class="cls-2" x="191.04" y="359.94" width="135.87" height="4.65" rx="1.66" ry="1.66"/>
    </g>
  </g>
</svg>